<?xml version="1.0" encoding="utf-8"?>
<!-- Generator: Adobe Illustrator 23.0.3, SVG Export Plug-In . SVG Version: 6.00 Build 0)  -->
<svg version="1.1" id="Calque_1" xmlns="http://www.w3.org/2000/svg" xmlns:xlink="http://www.w3.org/1999/xlink" x="0px" y="0px"
	 viewBox="0 0 103.6 89.6" style="enable-background:new 0 0 103.6 89.6;" xml:space="preserve">
<style type="text/css">
	.st0{fill:#FFFFFF;}
	.st1{fill:#D8D8D8;}
</style>
<title>Fichier 3</title>
<g>
	<g id="Accueil">
		<path class="st0" d="M8,59.8h17.9c1.1,0,2,0.9,2,2s-0.9,2-2,2h-4v25.6c8.6-2.1,16.2-12.6,21.2-19.8c2.1-3,5.4-4.2,8.7-5.9
			c6.2-3.1,14.9-6.4,21.7-7.5l6.1-1.1c0-0.1,0-0.2,0-0.3c0-0.7,0.3-1.3,0.9-1.7c3.3-2.1,5.2-5.2,5.2-8.5c-0.1-3.4-2-6.5-4.9-8.3
			c-0.6-0.4-1-1.2-0.8-2l-6.4-1.1c-7.6-1.5-14.9-3.9-21.8-7.4c-3.3-1.6-6.6-3-8.7-6c-5-7.2-12.6-17.5-21.2-19.7v25.7h4
			c1.1,0,2,0.9,2,2s-0.9,2-2,2H8c-0.9,0-1.8-0.7-1.9-1.6C6,28.4,6,28.5,6,28.7v4c0,0.4-0.2,0.7-0.6,0.9l-4.8,1.8
			C0.2,35.5,0,35.8,0,36.2v17c0,0.4,0.2,0.7,0.6,0.9L5.4,56C5.7,56.1,6,56.5,6,56.8v4c0,0.1,0,0.3,0.1,0.4C6.3,60.4,7.1,59.8,8,59.8
			z"/>
		<path class="st1" d="M11.9,63.7C11.9,63.7,11.9,63.7,11.9,63.7l2,24.9c0,0.5,0.5,1,1,1h2.9V63.7H11.9z"/>
		<path class="st1" d="M17.9,0H15c-0.5,0-1,0.5-1,1l-2,24.7c0,0.1,0,0.1,0,0.2h6L17.9,0z"/>
		<path class="st0" d="M8,29.9h17.9c1.1,0,2-0.9,2-2s-0.9-2-2-2h-4V0.2c-0.3-0.1-0.7-0.2-1-0.2h-3v25.9h-6c-0.2,1.1-1.1,1.9-2.2,1.9
			H6.9c-0.4,0-0.7,0.2-0.8,0.5C6.3,29.2,7.1,29.9,8,29.9z"/>
		<path class="st0" d="M21.9,89.4V63.7h4c1.1,0,2-0.9,2-2s-0.9-2-2-2H8c-0.9,0-1.7,0.6-1.9,1.5c0.1,0.3,0.5,0.5,0.8,0.5h2.8
			c1.1,0,2.1,0.9,2.3,2h6v25.9h3C21.2,89.6,21.6,89.5,21.9,89.4z"/>
		<path class="st0" d="M89.6,44.7c0,3.6-1.5,7-4,9.5l5.4-0.9c5.2-0.9,7.5-3,11.5-6.3c1.2-1,1.4-2.7,0.4-3.9
			c-0.1-0.1-0.3-0.3-0.4-0.4c-4-3.3-6.4-5.4-11.5-6.3l-5.2-0.9C88.2,37.9,89.6,41.2,89.6,44.7z"/>
		<path class="st1" d="M23.9,53.8V35.9c0-1.1-0.9-2-2-2s-2,0.9-2,2v17.9c0,1.1,0.9,2,2,2S23.9,54.9,23.9,53.8z"/>
		<path class="st1" d="M33.9,53.8V35.9c0-1.1-0.9-2-2-2c-1.1,0-2,0.9-2,2v17.9c0,1.1,0.9,2,2,2C33,55.8,33.9,54.9,33.9,53.8z"/>
		<path class="st1" d="M39.8,35.9v17.9c0,1.1,0.9,2,2,2s2-0.9,2-2V35.9c0-1.1-0.9-2-2-2S39.8,34.8,39.8,35.9z"/>
		<path class="st1" d="M15.9,51.8V37.8c0-1.1-0.9-2-2-2H10c-1.1,0-2,0.9-2,2s0.9,2,2,2h2v10h-2c-1.1,0-2,0.9-2,2s0.9,2,2,2h4
			C15.1,53.8,16,52.9,15.9,51.8C15.9,51.8,15.9,51.8,15.9,51.8z"/>
		<path class="st1" d="M43.1,69.6c2.1-3,5.4-4.2,8.7-5.9c6.2-3.1,14.9-6.4,21.7-7.5C60.2,54.8,30,54.8,29.9,83c0,0.7,0,1.4,0.1,2
			C35.2,80.8,39.7,74.5,43.1,69.6z"/>
		<path class="st1" d="M74,33.3l-0.4-0.1c-7.6-1.5-14.9-3.9-21.8-7.4c-3.3-1.6-6.6-3-8.7-6C39.7,15,35.2,8.8,29.9,4.5
			c0,0.7-0.1,1.3-0.1,2.1C30,35.2,60.9,34.8,74,33.3z"/>
	</g>
</g>
</svg>
