<svg xmlns="http://www.w3.org/2000/svg" viewBox="0 0 83.9 53"><defs><style>.cls-1{fill:none;stroke-width:5px;}.cls-1,.cls-2{stroke:#fff;stroke-miterlimit:10;opacity:0.49;}.cls-2,.cls-4{fill:#fff;}.cls-2{stroke-width:2px;}.cls-3{opacity:0.3;}</style></defs><title>Fichier 5</title><g id="Calque_2" data-name="Calque 2"><g id="Accueil"><polygon class="cls-1" points="17.09 24.59 10.71 13.55 4.33 2.5 17.09 2.5 29.84 2.5 23.46 13.55 17.09 24.59"/><circle class="cls-2" cx="18.34" cy="48.5" r="3.5"/><g class="cls-3"><path class="cls-4" d="M31.19,25.1h2.16l1.13,4a16.42,16.42,0,0,1,.44,2.05h0A12.4,12.4,0,0,1,35.17,30l1.26-4.85h2.22L35.9,34.23H34Z"/><path class="cls-4" d="M45.63,34.23H43.47l-.35-1.53H40.94l-.37,1.53H38.46l2.42-9.13h2.33Zm-2.9-3.17a38.55,38.55,0,0,1-.7-3.88h0c-.16,1.27-.39,2.56-.69,3.88Z"/><path class="cls-4" d="M46.67,25.1h2.07v7h1.64v2.12H46.67Z"/><path class="cls-4" d="M51.78,25.1h2.08v4.29h0l2-4.29H58L55.9,29.76l2,4.47H55.65l-1.76-3.8h0v3.8H51.78Z"/><path class="cls-4" d="M58.18,25.1h2.33c.51,1.31.89,2.32,1.12,3h0c.23-.72.6-1.74,1.1-3h2.38l-2.45,5v4.13H60.6V30.1Z"/><path class="cls-4" d="M66.21,25.1h2.41a3.34,3.34,0,0,1,2.31.75,2.58,2.58,0,0,1,.85,2,2.82,2.82,0,0,1-.32,1.28,2.16,2.16,0,0,1-.94.93l1.66,4.12H70l-1.68-4.16h0v4.16H66.21Zm2.07,1.76V29c.92,0,1.37-.34,1.37-1a1.14,1.14,0,0,0-.31-.91A1.72,1.72,0,0,0,68.28,26.86Z"/><path class="cls-4" d="M73.42,25.1h2.07v9.13H73.42Z"/><path class="cls-4" d="M83.9,34.23H81.75L81.4,32.7H79.21l-.36,1.53H76.74l2.42-9.13h2.32ZM81,31.06c-.31-1.36-.54-2.65-.7-3.88h0c-.17,1.27-.4,2.56-.69,3.88Z"/></g></g></g></svg>