<svg xmlns="http://www.w3.org/2000/svg" viewBox="0 0 103.55 89.64"><defs><style>.cls-1{opacity:0.5;}.cls-2{fill:#fff;}.cls-3{fill:#d8d8d8;}.cls-4{fill:#a0a0a0;}</style></defs><title>Fichier 2</title><g id="Calque_2" data-name="Calque 2"><g id="Accueil"><g class="cls-1"><path class="cls-2" d="M8,59.76H25.9a2,2,0,0,1,0,4h-4V89.4c8.57-2.12,16.17-12.57,21.18-19.77,2.1-3,5.43-4.24,8.7-5.89,6.18-3.1,14.9-6.36,21.74-7.5l6.11-1.06a1.86,1.86,0,0,1,0-.33,2,2,0,0,1,.91-1.68c3.27-2.11,5.15-5.2,5.15-8.48a10.2,10.2,0,0,0-4.9-8.32,2,2,0,0,1-.84-2l-6.39-1.1A85,85,0,0,1,51.79,25.9c-3.27-1.65-6.6-3-8.7-6C38.08,12.69,30.48,2.35,21.91.24V25.9h4a2,2,0,1,1,0,4H8A2,2,0,0,1,6.06,28.3a1,1,0,0,0-.08.38v4a.93.93,0,0,1-.59.86L.59,35.37a.93.93,0,0,0-.59.86V53.28a.93.93,0,0,0,.59.86L5.39,56a.91.91,0,0,1,.59.85v4a.92.92,0,0,0,.1.41A2,2,0,0,1,8,59.76Z"/><path class="cls-3" d="M11.94,63.74s0,0,0,.06l2,24.88a1.05,1.05,0,0,0,1,1h2.94V63.74Z"/><path class="cls-3" d="M17.93,0H15a1.05,1.05,0,0,0-1,1L12,25.72c0,.06,0,.11,0,.18h6Z"/><path class="cls-4" d="M8,29.88H25.9a2,2,0,1,0,0-4h-4V.24c-.34-.09-.67-.18-1-.24h-3V25.9h-6a2.26,2.26,0,0,1-2.21,1.86H6.89a.92.92,0,0,0-.83.54A2,2,0,0,0,8,29.88Z"/><path class="cls-4" d="M21.91,89.4V63.74h4a2,2,0,0,0,0-4H8a2,2,0,0,0-1.89,1.48.9.9,0,0,0,.81.51h2.8a2.28,2.28,0,0,1,2.25,2h6v25.9h3C21.24,89.58,21.57,89.49,21.91,89.4Z"/><path class="cls-2" d="M89.64,44.69a13.42,13.42,0,0,1-4,9.46L91,53.22c5.16-.86,7.5-3,11.54-6.3a2.79,2.79,0,0,0,0-4.33c-4-3.26-6.38-5.43-11.54-6.3l-5.23-.9A13.42,13.42,0,0,1,89.64,44.69Z"/><path class="cls-4" d="M23.9,53.78V35.86a2,2,0,1,0-4,0V53.78a2,2,0,1,0,4,0Z"/><path class="cls-4" d="M33.86,53.78V35.86a2,2,0,1,0-4,0V53.78a2,2,0,1,0,4,0Z"/><path class="cls-4" d="M39.84,35.86V53.78a2,2,0,1,0,4,0V35.86a2,2,0,1,0-4,0Z"/><path class="cls-4" d="M15.94,51.79V37.85a2,2,0,0,0-2-2H10a2,2,0,1,0,0,4h2v10H10a2,2,0,1,0,0,4h4A2,2,0,0,0,15.94,51.79Z"/><path class="cls-3" d="M43.09,69.63c2.1-3,5.43-4.24,8.7-5.89,6.17-3.1,14.89-6.36,21.73-7.5C60.22,54.85,30,54.8,29.88,83c0,.72,0,1.39.06,2C35.16,80.8,39.71,74.48,43.09,69.63Z"/><path class="cls-3" d="M74,33.35l-.43-.07A85,85,0,0,1,51.79,25.9c-3.27-1.65-6.6-3-8.7-6C39.72,15,35.17,8.77,29.94,4.54c0,.66-.06,1.34-.06,2.08C30,35.17,60.92,34.78,74,33.35Z"/></g></g></g></svg>