<svg xmlns="http://www.w3.org/2000/svg" viewBox="0 0 85.29 53"><defs><style>.cls-1{fill:none;stroke-width:5px;}.cls-1,.cls-2{stroke:#fff;stroke-miterlimit:10;opacity:0.49;}.cls-2,.cls-4{fill:#fff;}.cls-2{stroke-width:2px;}.cls-3{opacity:0.3;}</style></defs><title>Fichier 5</title><g id="Calque_2" data-name="Calque 2"><g id="Accueil"><polygon class="cls-1" points="17.09 24.59 10.71 13.55 4.33 2.5 17.09 2.5 29.84 2.5 23.46 13.55 17.09 24.59"/><circle class="cls-2" cx="17.34" cy="48.5" r="3.5"/><g class="cls-3"><path class="cls-4" d="M30.35,25.1h4.94v2.08H33.87v7h-2.1v-7H30.35Z"/><path class="cls-4" d="M36.58,25.1h2.07v3.38h1.84V25.1h2.07v9.13H40.49v-3.8H38.65v3.8H36.58Z"/><path class="cls-4" d="M43.65,25.1H46c.52,1.31.89,2.32,1.12,3h0c.23-.72.6-1.74,1.11-3h2.38l-2.45,5v4.13h-2.1V30.1Z"/><path class="cls-4" d="M51.67,25.1h2.42a3.38,3.38,0,0,1,2.31.75,2.6,2.6,0,0,1,.84,2,2.7,2.7,0,0,1-.32,1.28,2.09,2.09,0,0,1-.93.93l1.65,4.12H55.45l-1.67-4.16h0v4.16H51.67Zm2.07,1.76V29q1.38,0,1.38-1a1.14,1.14,0,0,0-.32-.91A1.67,1.67,0,0,0,53.74,26.86Z"/><path class="cls-4" d="M58.89,25.1H61v9.13H58.89Z"/><path class="cls-4" d="M69.36,34.23H67.21l-.35-1.53H64.68l-.37,1.53H62.2l2.42-9.13h2.32Zm-2.89-3.17a38.55,38.55,0,0,1-.7-3.88h0c-.16,1.27-.39,2.56-.69,3.88Z"/><path class="cls-4" d="M70.12,30.23h3.15v1.71H70.12Z"/><path class="cls-4" d="M77.23,24.86a2.52,2.52,0,0,1,2.26,1.22,6.91,6.91,0,0,1,.76,3.61,6.64,6.64,0,0,1-.78,3.54,2.5,2.5,0,0,1-2.24,1.23A2.54,2.54,0,0,1,75,33.31a6.52,6.52,0,0,1-.82-3.72A6.54,6.54,0,0,1,75,26.1a2.48,2.48,0,0,1,2.21-1.24Zm-1,4.72c0,2,.33,2.92,1,2.92a.83.83,0,0,0,.79-.64,6.42,6.42,0,0,0,.24-2.06A7.68,7.68,0,0,0,78,27.54c-.16-.47-.43-.7-.8-.7C76.54,26.84,76.21,27.75,76.21,29.58Z"/><path class="cls-4" d="M82.15,25.1h3.14v9.13h-2V27H82.15Z"/></g></g></g></svg>