<svg xmlns="http://www.w3.org/2000/svg" viewBox="0 0 96.02 56"><defs><style>.cls-1{fill:none;stroke-width:5px;}.cls-1,.cls-2{stroke:#fff;stroke-miterlimit:10;opacity:0.49;}.cls-2,.cls-4{fill:#fff;}.cls-2{stroke-width:2px;}.cls-3{opacity:0.3;}</style></defs><title>Fichier 7</title><g id="Calque_2" data-name="Calque 2"><g id="Accueil"><polygon class="cls-1" points="17.09 24.59 10.71 13.55 4.33 2.5 17.09 2.5 29.84 2.5 23.46 13.55 17.09 24.59"/><circle class="cls-2" cx="20.34" cy="51.5" r="3.5"/><g class="cls-3"><path class="cls-4" d="M40.42,37.23H38.27l-.35-1.53H35.73l-.36,1.53H33.26l2.42-9.13H38Zm-2.9-3.17c-.31-1.36-.54-2.65-.7-3.88h0c-.17,1.27-.4,2.56-.69,3.88Z"/><path class="cls-4" d="M41.47,28.1h2.09l2.63,5.26-.08-1V28.1h2.08v9.13H46.06L43.48,32l.06,1.14v4H41.47Z"/><path class="cls-4" d="M56.42,32.11v1.53a4.22,4.22,0,0,1-.85,2.8,3,3,0,0,1-2.35,1,3,3,0,0,1-2.58-1.25,6,6,0,0,1-.91-3.58,5.84,5.84,0,0,1,.91-3.56,3.08,3.08,0,0,1,2.65-1.21,3,3,0,0,1,2.83,2.08l-2,.82a2.46,2.46,0,0,0-.46-.64.78.78,0,0,0-.58-.21.91.91,0,0,0-.89.66A6.2,6.2,0,0,0,52,32.7a5.09,5.09,0,0,0,.29,2,1,1,0,0,0,.95.65c.69,0,1.05-.5,1.07-1.49h-1V32.11Z"/><path class="cls-4" d="M57.89,28.1H60v6.43a1,1,0,0,0,.24.71.8.8,0,0,0,.64.26.81.81,0,0,0,.66-.28,1.13,1.13,0,0,0,.24-.77V28.1h2.12v6a4.87,4.87,0,0,1-.33,2,2.18,2.18,0,0,1-.94,1.08,3.66,3.66,0,0,1-1.75.35,2.81,2.81,0,0,1-2.33-.85,4.65,4.65,0,0,1-.68-2.86Z"/><path class="cls-4" d="M65.79,28.1h2.07v7H69.5v2.12H65.79Z"/><path class="cls-4" d="M77.29,37.23H75.13l-.35-1.53H72.6l-.37,1.53H70.12l2.42-9.13h2.33Zm-2.9-3.17c-.31-1.36-.54-2.65-.7-3.88h0c-.16,1.27-.39,2.56-.69,3.88Z"/><path class="cls-4" d="M78.33,28.1h2.42a3.38,3.38,0,0,1,2.31.75,2.6,2.6,0,0,1,.84,2,2.7,2.7,0,0,1-.32,1.28,2.09,2.09,0,0,1-.93.93l1.65,4.12H82.11l-1.67-4.16h0v4.16H78.33Zm2.07,1.76V32q1.38,0,1.38-1a1.14,1.14,0,0,0-.32-.91A1.67,1.67,0,0,0,80.4,29.86Z"/><path class="cls-4" d="M85.54,28.1h2.08v9.13H85.54Z"/><path class="cls-4" d="M96,37.23H93.87l-.35-1.53H91.33L91,37.23H88.86l2.42-9.13H93.6Zm-2.89-3.17a38.55,38.55,0,0,1-.7-3.88h0c-.16,1.27-.39,2.56-.69,3.88Z"/></g></g></g></svg>