<svg xmlns="http://www.w3.org/2000/svg" viewBox="0 0 94.02 55"><defs><style>.cls-1{fill:none;stroke-width:5px;}.cls-1,.cls-2{stroke:#fff;stroke-miterlimit:10;opacity:0.49;}.cls-2,.cls-4{fill:#fff;}.cls-2{stroke-width:2px;}.cls-3{opacity:0.3;}</style></defs><title>Fichier 7 (2)</title><g id="Calque_2" data-name="Calque 2"><g id="Accueil"><polygon class="cls-1" points="17.09 24.59 10.71 13.55 4.33 2.5 17.09 2.5 29.84 2.5 23.46 13.55 17.09 24.59"/><circle class="cls-2" cx="18.34" cy="50.5" r="3.5"/><g class="cls-3"><path class="cls-4" d="M32,27.1H34A3.92,3.92,0,0,1,37,28.25a4.81,4.81,0,0,1,1,3.34,6.05,6.05,0,0,1-.51,2.69,3.23,3.23,0,0,1-1.45,1.49,4.6,4.6,0,0,1-2,.46H32ZM34.11,29v5.24a1.68,1.68,0,0,0,1.33-.67,3.58,3.58,0,0,0,.39-1.92,5.77,5.77,0,0,0-.14-1.35,1.88,1.88,0,0,0-.4-.84,1.2,1.2,0,0,0-.53-.37A2.75,2.75,0,0,0,34.11,29Z"/><path class="cls-4" d="M39.47,27.1h4.19V29H41.54v1.68h1.84v1.9H41.54v1.66h2.13v1.95h-4.2Z"/><path class="cls-4" d="M44.46,27.1h2.16l1.13,4a16.42,16.42,0,0,1,.44,2.05h0A10,10,0,0,1,48.44,32L49.7,27.1h2.21l-2.74,9.13H47.25Z"/><path class="cls-4" d="M53,27.1H55.1v7h1.64v2.12H53Z"/><path class="cls-4" d="M64.53,36.23H62.37L62,34.7H59.84l-.37,1.53H57.36l2.42-9.13h2.33Zm-2.9-3.17c-.31-1.36-.54-2.65-.7-3.88h0c-.16,1.27-.39,2.56-.69,3.88Z"/><path class="cls-4" d="M65.57,27.1h2.11a3.91,3.91,0,0,1,2.64.72,2.35,2.35,0,0,1,.81,1.84A2.19,2.19,0,0,1,70,31.59a2,2,0,0,1,1.34,2,2.42,2.42,0,0,1-.83,1.91,3.21,3.21,0,0,1-2.18.73H65.57Zm2.07,1.75v2c.93,0,1.39-.35,1.39-1a.87.87,0,0,0-.33-.77A2.11,2.11,0,0,0,67.64,28.85Zm0,3.62v2a2.51,2.51,0,0,0,1.18-.24.81.81,0,0,0,.4-.76c0-.65-.47-1-1.41-1Z"/><path class="cls-4" d="M72.42,32.23h3.15v1.71H72.42Z"/><path class="cls-4" d="M77.09,27.1H79a3.9,3.9,0,0,1,3,1.15,4.76,4.76,0,0,1,1,3.34,5.91,5.91,0,0,1-.52,2.69,3.16,3.16,0,0,1-1.44,1.49,4.64,4.64,0,0,1-2,.46h-2ZM79.16,29v5.24a1.7,1.7,0,0,0,1.34-.67,3.58,3.58,0,0,0,.39-1.92,5.77,5.77,0,0,0-.14-1.35,1.89,1.89,0,0,0-.41-.84,1.17,1.17,0,0,0-.52-.37A2.84,2.84,0,0,0,79.16,29Z"/><path class="cls-4" d="M83.68,27.1h2l1.18,5.5h0l1.07-5.5h1.8l1.08,5.44h0L92,27.1h2l-2.19,9.13H90l-.87-4.09q-.15-.66-.24-1.29h0c-.11.71-.19,1.18-.24,1.42l-.87,4H85.87Z"/></g></g></g></svg>