<svg xmlns="http://www.w3.org/2000/svg" viewBox="0 0 495.83 58.88"><defs><style>.cls-1{fill:#fff;}</style></defs><title>Fichier 1</title><g id="Calque_2" data-name="Calque 2"><g id="Accueil"><path d="M3,58.88V14.26H8.16v-.08H3V3H13.41V14.18H8.24v.08h5.17V36.53h.08V58.88Zm3.36-41A1.49,1.49,0,0,0,6.6,17a1.39,1.39,0,0,0-.24-.79,1.19,1.19,0,0,0-.74-.26,1.3,1.3,0,0,0-.82.26,1.39,1.39,0,0,0-.24.79,1.49,1.49,0,0,0,.24.87,1.25,1.25,0,0,0,.82.27A1.15,1.15,0,0,0,6.36,17.84Zm0,5.59a1.49,1.49,0,0,0,.24-.87,1.39,1.39,0,0,0-.24-.79,1.19,1.19,0,0,0-.74-.26,1.3,1.3,0,0,0-.82.26,1.39,1.39,0,0,0-.24.79,1.49,1.49,0,0,0,.24.87,1.24,1.24,0,0,0,.82.26A1.13,1.13,0,0,0,6.36,23.43ZM6,11.82a.61.61,0,0,0,.16-.44A.53.53,0,0,0,6,11a.48.48,0,0,0-.33-.17.57.57,0,0,0-.41.17.53.53,0,0,0-.16.35.61.61,0,0,0,.16.44.53.53,0,0,0,.41.17A.45.45,0,0,0,6,11.82ZM6,28.58a.59.59,0,0,0,.16-.43A.49.49,0,0,0,6,27.8a.46.46,0,0,0-.33-.18.54.54,0,0,0-.41.18.49.49,0,0,0-.16.35.59.59,0,0,0,.16.43.54.54,0,0,0,.41.18A.46.46,0,0,0,6,28.58Zm6-10.39A1.71,1.71,0,0,0,12.42,17a1.59,1.59,0,0,0-.49-1.13,1.45,1.45,0,0,0-1.06-.53,1.54,1.54,0,0,0-1.15.53A1.59,1.59,0,0,0,9.23,17a1.71,1.71,0,0,0,.49,1.22,1.54,1.54,0,0,0,1.15.53A1.45,1.45,0,0,0,11.93,18.19Zm0,5.59a1.71,1.71,0,0,0,.49-1.22,1.63,1.63,0,0,0-.49-1.14,1.44,1.44,0,0,0-1.06-.52,1.53,1.53,0,0,0-1.15.52,1.63,1.63,0,0,0-.49,1.14,1.71,1.71,0,0,0,.49,1.22,1.53,1.53,0,0,0,1.15.52A1.44,1.44,0,0,0,11.93,23.78ZM11.6,12.26a1.47,1.47,0,0,0,.25-.88,1.27,1.27,0,0,0-.25-.78,1.12,1.12,0,0,0-.73-.27,1.23,1.23,0,0,0-.82.27,1.27,1.27,0,0,0-.25.78,1.47,1.47,0,0,0,.25.88,1.28,1.28,0,0,0,.82.26A1.16,1.16,0,0,0,11.6,12.26ZM11.6,29a1.42,1.42,0,0,0,.25-.87,1.3,1.3,0,0,0-.25-.79,1.16,1.16,0,0,0-.73-.26,1.28,1.28,0,0,0-.82.26,1.3,1.3,0,0,0-.25.79,1.42,1.42,0,0,0,.25.87,1.28,1.28,0,0,0,.82.26A1.16,1.16,0,0,0,11.6,29ZM11.19,6.23a.6.6,0,0,0,.17-.44.5.5,0,0,0-.17-.34.46.46,0,0,0-.32-.18.51.51,0,0,0-.41.18.5.5,0,0,0-.17.34.6.6,0,0,0,.17.44.51.51,0,0,0,.41.18A.46.46,0,0,0,11.19,6.23Zm0,27.94a.62.62,0,0,0,.17-.44.55.55,0,0,0-.17-.35.48.48,0,0,0-.32-.17.53.53,0,0,0-.41.17.55.55,0,0,0-.17.35.62.62,0,0,0,.17.44.51.51,0,0,0,.41.18A.46.46,0,0,0,11.19,34.17Zm2.3,2.45V31h-.08v-.09h.08v-5.5h21v-.09H45V14.18H13.49V8.59h0V3H45a9.62,9.62,0,0,1,7.37,3.32,11.08,11.08,0,0,1,3.12,7.86V25.35a11,11,0,0,1-3.12,7.95A9.9,9.9,0,0,1,45,36.53H29.22v.09Zm-.08-22.44h0Zm0,11.26v-.09h.08v.09Zm1.14-6.81A2.55,2.55,0,0,1,14,17a2.43,2.43,0,0,1,.57-1.57,2.21,2.21,0,0,1,1.56-.61,2.08,2.08,0,0,1,1.47.61A2.39,2.39,0,0,1,18.16,17a2.51,2.51,0,0,1-.58,1.66,2.08,2.08,0,0,1-1.47.61A2.21,2.21,0,0,1,14.55,18.63Zm0,5.59A2.55,2.55,0,0,1,14,22.56,2.41,2.41,0,0,1,14.55,21a2.21,2.21,0,0,1,1.56-.61,2.08,2.08,0,0,1,1.47.61,2.37,2.37,0,0,1,.58,1.57,2.51,2.51,0,0,1-.58,1.66,2.08,2.08,0,0,1-1.47.61A2.21,2.21,0,0,1,14.55,24.22Zm2.62-11.61a1.74,1.74,0,0,0,.5-1.23,1.64,1.64,0,0,0-.5-1.13,1.44,1.44,0,0,0-1.06-.53,1.54,1.54,0,0,0-1.15.53,1.62,1.62,0,0,0-.49,1.13A1.73,1.73,0,0,0,15,12.61a1.56,1.56,0,0,0,1.15.52A1.46,1.46,0,0,0,17.17,12.61Zm0,16.76a1.73,1.73,0,0,0,.5-1.22,1.64,1.64,0,0,0-.5-1.14,1.42,1.42,0,0,0-1.06-.52A1.53,1.53,0,0,0,15,27a1.63,1.63,0,0,0-.49,1.14A1.72,1.72,0,0,0,15,29.37a1.53,1.53,0,0,0,1.15.52A1.42,1.42,0,0,0,17.17,29.37Zm-.32-22.7a1.52,1.52,0,0,0,.24-.88A1.33,1.33,0,0,0,16.85,5a1.13,1.13,0,0,0-.74-.26,1.24,1.24,0,0,0-.82.26,1.34,1.34,0,0,0-.25.78,1.52,1.52,0,0,0,.25.88,1.3,1.3,0,0,0,.82.26A1.19,1.19,0,0,0,16.85,6.67Zm0,27.94a1.52,1.52,0,0,0,.24-.88,1.33,1.33,0,0,0-.24-.78,1.13,1.13,0,0,0-.74-.26,1.24,1.24,0,0,0-.82.26,1.34,1.34,0,0,0-.25.78,1.52,1.52,0,0,0,.25.88,1.3,1.3,0,0,0,.82.26A1.19,1.19,0,0,0,16.85,34.61Zm2.95-16A2.51,2.51,0,0,1,19.22,17a2.39,2.39,0,0,1,.58-1.57,2.17,2.17,0,0,1,1.55-.61,2.11,2.11,0,0,1,1.48.61A2.43,2.43,0,0,1,23.4,17a2.55,2.55,0,0,1-.57,1.66,2.11,2.11,0,0,1-1.48.61A2.17,2.17,0,0,1,19.8,18.63Zm0,5.59a2.51,2.51,0,0,1-.58-1.66A2.37,2.37,0,0,1,19.8,21a2.17,2.17,0,0,1,1.55-.61,2.11,2.11,0,0,1,1.48.61,2.41,2.41,0,0,1,.57,1.57,2.55,2.55,0,0,1-.57,1.66,2.11,2.11,0,0,1-1.48.61A2.17,2.17,0,0,1,19.8,24.22Zm2.62-11.61a1.73,1.73,0,0,0,.49-1.23,1.62,1.62,0,0,0-.49-1.13,1.47,1.47,0,0,0-1.07-.53,1.52,1.52,0,0,0-1.14.53,1.64,1.64,0,0,0-.5,1.13,1.74,1.74,0,0,0,.5,1.23,1.54,1.54,0,0,0,1.14.52A1.5,1.5,0,0,0,22.42,12.61Zm0,16.76a1.72,1.72,0,0,0,.49-1.22A1.63,1.63,0,0,0,22.42,27a1.46,1.46,0,0,0-1.07-.52,1.5,1.5,0,0,0-1.14.52,1.64,1.64,0,0,0-.5,1.14,1.73,1.73,0,0,0,.5,1.22,1.5,1.5,0,0,0,1.14.52A1.46,1.46,0,0,0,22.42,29.37Zm-.33-22.7a1.52,1.52,0,0,0,.25-.88A1.34,1.34,0,0,0,22.09,5a1.12,1.12,0,0,0-.74-.26,1.26,1.26,0,0,0-.82.26,1.33,1.33,0,0,0-.24.78,1.52,1.52,0,0,0,.24.88,1.32,1.32,0,0,0,.82.26A1.17,1.17,0,0,0,22.09,6.67Zm0,27.94a1.52,1.52,0,0,0,.25-.88,1.34,1.34,0,0,0-.25-.78,1.12,1.12,0,0,0-.74-.26,1.26,1.26,0,0,0-.82.26,1.33,1.33,0,0,0-.24.78,1.52,1.52,0,0,0,.24.88,1.32,1.32,0,0,0,.82.26A1.17,1.17,0,0,0,22.09,34.61ZM24,25.35v0Zm1.48-7.16A1.71,1.71,0,0,1,25,17a1.59,1.59,0,0,1,.49-1.13,1.54,1.54,0,0,1,1.15-.53,1.45,1.45,0,0,1,1.06.53A1.59,1.59,0,0,1,28.15,17a1.71,1.71,0,0,1-.49,1.22,1.45,1.45,0,0,1-1.06.53A1.54,1.54,0,0,1,25.45,18.19Zm0,5.59A1.71,1.71,0,0,1,25,22.56a1.63,1.63,0,0,1,.49-1.14,1.53,1.53,0,0,1,1.15-.52,1.44,1.44,0,0,1,1.06.52,1.63,1.63,0,0,1,.49,1.14,1.71,1.71,0,0,1-.49,1.22,1.44,1.44,0,0,1-1.06.52A1.53,1.53,0,0,1,25.45,23.78Zm1.88-11.52a1.47,1.47,0,0,0,.25-.88,1.27,1.27,0,0,0-.25-.78,1.1,1.1,0,0,0-.73-.27,1.25,1.25,0,0,0-.82.27,1.27,1.27,0,0,0-.25.78,1.47,1.47,0,0,0,.25.88,1.3,1.3,0,0,0,.82.26A1.14,1.14,0,0,0,27.33,12.26Zm0,16.76a1.42,1.42,0,0,0,.25-.87,1.3,1.3,0,0,0-.25-.79,1.14,1.14,0,0,0-.73-.26,1.3,1.3,0,0,0-.82.26,1.3,1.3,0,0,0-.25.79,1.42,1.42,0,0,0,.25.87,1.3,1.3,0,0,0,.82.26A1.14,1.14,0,0,0,27.33,29ZM26.92,6.23a.6.6,0,0,0,.17-.44.5.5,0,0,0-.17-.34.44.44,0,0,0-.32-.18.52.52,0,0,0-.41.18.5.5,0,0,0-.17.34.6.6,0,0,0,.17.44.52.52,0,0,0,.41.18A.44.44,0,0,0,26.92,6.23Zm0,27.94a.62.62,0,0,0,.17-.44.55.55,0,0,0-.17-.35.46.46,0,0,0-.32-.17.59.59,0,0,0-.58.52.62.62,0,0,0,.17.44.52.52,0,0,0,.41.18A.44.44,0,0,0,26.92,34.17Zm2.3-8.82v0ZM31,17.84a1.49,1.49,0,0,1-.24-.87,1.39,1.39,0,0,1,.24-.79,1.3,1.3,0,0,1,.82-.26,1.19,1.19,0,0,1,.74.26,1.39,1.39,0,0,1,.24.79,1.49,1.49,0,0,1-.24.87,1.15,1.15,0,0,1-.74.27A1.25,1.25,0,0,1,31,17.84Zm0,5.59a1.49,1.49,0,0,1-.24-.87,1.39,1.39,0,0,1,.24-.79,1.3,1.3,0,0,1,.82-.26,1.19,1.19,0,0,1,.74.26,1.39,1.39,0,0,1,.24.79,1.49,1.49,0,0,1-.24.87,1.13,1.13,0,0,1-.74.26A1.24,1.24,0,0,1,31,23.43Zm1.15-11.61a.61.61,0,0,0,.16-.44.53.53,0,0,0-.16-.35.48.48,0,0,0-.33-.17.57.57,0,0,0-.41.17.53.53,0,0,0-.16.35.61.61,0,0,0,.16.44.53.53,0,0,0,.41.17A.45.45,0,0,0,32.17,11.82Zm0,16.76a.59.59,0,0,0,.16-.43.49.49,0,0,0-.16-.35.46.46,0,0,0-.33-.18.54.54,0,0,0-.41.18.49.49,0,0,0-.16.35.59.59,0,0,0,.16.43.54.54,0,0,0,.41.18A.46.46,0,0,0,32.17,28.58Z"/><path d="M65.84,58.88V3h42a9.63,9.63,0,0,1,7.38,3.32,11.11,11.11,0,0,1,3.11,7.86V25.35a11,11,0,0,1-3.11,7.95,9.94,9.94,0,0,1-7.38,3.23l10.49,22.35H107.79L97.31,36.53h-21V58.88Zm42-33.53V14.18H76.33V25.35Z"/><path d="M139.25,58.88a9.82,9.82,0,0,1-7.45-3.23,11.37,11.37,0,0,1-3-7.94V14.18a11.06,11.06,0,0,1,3-7.86A9.87,9.87,0,0,1,139.25,3h31.47a9.62,9.62,0,0,1,7.37,3.32,11.07,11.07,0,0,1,3.11,7.86V47.71a11,11,0,0,1-3.11,7.94,9.91,9.91,0,0,1-7.37,3.23Zm31.47-11.17V14.18H139.25V47.71Z"/><path d="M191.69,14.18V3h20.89V8.59h.09V3h31.46V14.18H212.67V8.59h-.09v5.59H191.69Zm10.49,44.7a9.84,9.84,0,0,1-7.46-3.23,11.37,11.37,0,0,1-3-7.94V36.53h10.49V47.71h21V14.26h5.25v0h5.24V47.71a11,11,0,0,1-3.11,7.94,9.94,9.94,0,0,1-7.38,3.23Zm1.8-41a1.49,1.49,0,0,1-.24-.87,1.39,1.39,0,0,1,.24-.79,1.3,1.3,0,0,1,.82-.26,1.19,1.19,0,0,1,.74.26,1.39,1.39,0,0,1,.24.79,1.49,1.49,0,0,1-.24.87,1.15,1.15,0,0,1-.74.27A1.25,1.25,0,0,1,204,17.84Zm0,5.59a1.49,1.49,0,0,1-.24-.87,1.39,1.39,0,0,1,.24-.79,1.3,1.3,0,0,1,.82-.26,1.19,1.19,0,0,1,.74.26,1.39,1.39,0,0,1,.24.79,1.49,1.49,0,0,1-.24.87,1.13,1.13,0,0,1-.74.26A1.24,1.24,0,0,1,204,23.43Zm1.15-11.61a.61.61,0,0,0,.16-.44.53.53,0,0,0-.16-.35.48.48,0,0,0-.33-.17.57.57,0,0,0-.41.17.53.53,0,0,0-.16.35.61.61,0,0,0,.16.44.53.53,0,0,0,.41.17A.45.45,0,0,0,205.13,11.82Zm-.74,16.76a.59.59,0,0,1-.16-.43.49.49,0,0,1,.16-.35.54.54,0,0,1,.41-.18.46.46,0,0,1,.33.18.49.49,0,0,1,.16.35.59.59,0,0,1-.16.43.46.46,0,0,1-.33.18A.54.54,0,0,1,204.39,28.58Zm3-14.4h0Zm1.56,4a1.71,1.71,0,0,1-.49-1.22,1.59,1.59,0,0,1,.49-1.13,1.53,1.53,0,0,1,1.14-.53,1.46,1.46,0,0,1,1.07.53A1.59,1.59,0,0,1,211.6,17a1.71,1.71,0,0,1-.49,1.22,1.46,1.46,0,0,1-1.07.53A1.53,1.53,0,0,1,208.9,18.19Zm0,5.59a1.71,1.71,0,0,1-.49-1.22,1.63,1.63,0,0,1,.49-1.14A1.52,1.52,0,0,1,210,20.9a1.44,1.44,0,0,1,1.07.52,1.63,1.63,0,0,1,.49,1.14,1.71,1.71,0,0,1-.49,1.22,1.44,1.44,0,0,1-1.07.52A1.52,1.52,0,0,1,208.9,23.78Zm1.88-11.52a1.47,1.47,0,0,0,.25-.88,1.27,1.27,0,0,0-.25-.78,1.13,1.13,0,0,0-.74-.27,1.22,1.22,0,0,0-.81.27,1.27,1.27,0,0,0-.25.78,1.47,1.47,0,0,0,.25.88,1.27,1.27,0,0,0,.81.26A1.17,1.17,0,0,0,210.78,12.26ZM209.23,29a1.42,1.42,0,0,1-.25-.87,1.3,1.3,0,0,1,.25-.79,1.27,1.27,0,0,1,.81-.26,1.17,1.17,0,0,1,.74.26,1.3,1.3,0,0,1,.25.79,1.42,1.42,0,0,1-.25.87,1.17,1.17,0,0,1-.74.26A1.27,1.27,0,0,1,209.23,29Zm1.14-22.79a.6.6,0,0,0,.17-.44.5.5,0,0,0-.17-.34.46.46,0,0,0-.33-.18.5.5,0,0,0-.4.18.46.46,0,0,0-.17.34.57.57,0,0,0,.17.44.5.5,0,0,0,.4.18A.46.46,0,0,0,210.37,6.23Zm-.73,27.94a.58.58,0,0,1-.17-.44.5.5,0,0,1,.17-.35.53.53,0,0,1,.4-.17.48.48,0,0,1,.33.17.55.55,0,0,1,.17.35.62.62,0,0,1-.17.44.46.46,0,0,1-.33.18A.5.5,0,0,1,209.64,34.17Zm2.94-20h0Zm1.15,4.45a2.55,2.55,0,0,1-.57-1.66,2.43,2.43,0,0,1,.57-1.57,2.21,2.21,0,0,1,1.56-.61,2.08,2.08,0,0,1,1.47.61,2.39,2.39,0,0,1,.58,1.57,2.51,2.51,0,0,1-.58,1.66,2.08,2.08,0,0,1-1.47.61A2.21,2.21,0,0,1,213.73,18.63Zm0,5.59a2.55,2.55,0,0,1-.57-1.66,2.41,2.41,0,0,1,.57-1.57,2.21,2.21,0,0,1,1.56-.61,2.08,2.08,0,0,1,1.47.61,2.37,2.37,0,0,1,.58,1.57,2.51,2.51,0,0,1-.58,1.66,2.08,2.08,0,0,1-1.47.61A2.21,2.21,0,0,1,213.73,24.22Zm2.62-11.61a1.74,1.74,0,0,0,.5-1.23,1.64,1.64,0,0,0-.5-1.13,1.44,1.44,0,0,0-1.06-.53,1.54,1.54,0,0,0-1.15.53,1.62,1.62,0,0,0-.49,1.13,1.73,1.73,0,0,0,.49,1.23,1.56,1.56,0,0,0,1.15.52A1.46,1.46,0,0,0,216.35,12.61Zm-2.21,16.76a1.72,1.72,0,0,1-.49-1.22,1.63,1.63,0,0,1,.49-1.14,1.53,1.53,0,0,1,1.15-.52,1.42,1.42,0,0,1,1.06.52,1.64,1.64,0,0,1,.5,1.14,1.73,1.73,0,0,1-.5,1.22,1.42,1.42,0,0,1-1.06.52A1.53,1.53,0,0,1,214.14,29.37ZM216,6.67a1.52,1.52,0,0,0,.24-.88A1.33,1.33,0,0,0,216,5a1.13,1.13,0,0,0-.74-.26,1.24,1.24,0,0,0-.82.26,1.34,1.34,0,0,0-.25.78,1.52,1.52,0,0,0,.25.88,1.3,1.3,0,0,0,.82.26A1.19,1.19,0,0,0,216,6.67Zm-1.56,27.94a1.52,1.52,0,0,1-.25-.88,1.34,1.34,0,0,1,.25-.78,1.24,1.24,0,0,1,.82-.26A1.13,1.13,0,0,1,216,33a1.33,1.33,0,0,1,.24.78,1.52,1.52,0,0,1-.24.88,1.19,1.19,0,0,1-.74.26A1.3,1.3,0,0,1,214.47,34.61Zm4.51-16A2.51,2.51,0,0,1,218.4,17,2.39,2.39,0,0,1,219,15.4a2.17,2.17,0,0,1,1.55-.61,2.11,2.11,0,0,1,1.48.61,2.43,2.43,0,0,1,.57,1.57,2.55,2.55,0,0,1-.57,1.66,2.11,2.11,0,0,1-1.48.61A2.17,2.17,0,0,1,219,18.63Zm0,5.59a2.51,2.51,0,0,1-.58-1.66A2.37,2.37,0,0,1,219,21a2.17,2.17,0,0,1,1.55-.61A2.11,2.11,0,0,1,222,21a2.41,2.41,0,0,1,.57,1.57,2.55,2.55,0,0,1-.57,1.66,2.11,2.11,0,0,1-1.48.61A2.17,2.17,0,0,1,219,24.22Zm2.62-11.61a1.73,1.73,0,0,0,.49-1.23,1.62,1.62,0,0,0-.49-1.13,1.47,1.47,0,0,0-1.07-.53,1.5,1.5,0,0,0-1.14.53,1.64,1.64,0,0,0-.5,1.13,1.74,1.74,0,0,0,.5,1.23,1.52,1.52,0,0,0,1.14.52A1.5,1.5,0,0,0,221.6,12.61Zm-2.21,16.76a1.73,1.73,0,0,1-.5-1.22,1.64,1.64,0,0,1,.5-1.14,1.49,1.49,0,0,1,1.14-.52,1.46,1.46,0,0,1,1.07.52,1.63,1.63,0,0,1,.49,1.14,1.72,1.72,0,0,1-.49,1.22,1.46,1.46,0,0,1-1.07.52A1.49,1.49,0,0,1,219.39,29.37Zm1.88-22.7a1.52,1.52,0,0,0,.25-.88,1.34,1.34,0,0,0-.25-.78,1.12,1.12,0,0,0-.74-.26,1.24,1.24,0,0,0-.82.26,1.33,1.33,0,0,0-.24.78,1.52,1.52,0,0,0,.24.88,1.3,1.3,0,0,0,.82.26A1.17,1.17,0,0,0,221.27,6.67Zm-1.56,27.94a1.52,1.52,0,0,1-.24-.88,1.33,1.33,0,0,1,.24-.78,1.24,1.24,0,0,1,.82-.26,1.12,1.12,0,0,1,.74.26,1.34,1.34,0,0,1,.25.78,1.52,1.52,0,0,1-.25.88,1.17,1.17,0,0,1-.74.26A1.3,1.3,0,0,1,219.71,34.61Zm3.44-9.26v0Zm0,5.59v0Zm3.69-12.75a1.71,1.71,0,0,0,.49-1.22,1.59,1.59,0,0,0-.49-1.13,1.45,1.45,0,0,0-1.06-.53,1.54,1.54,0,0,0-1.15.53,1.59,1.59,0,0,0-.49,1.13,1.71,1.71,0,0,0,.49,1.22,1.54,1.54,0,0,0,1.15.53A1.45,1.45,0,0,0,226.84,18.19Zm0,5.59a1.71,1.71,0,0,0,.49-1.22,1.63,1.63,0,0,0-.49-1.14,1.44,1.44,0,0,0-1.06-.52,1.53,1.53,0,0,0-1.15.52,1.63,1.63,0,0,0-.49,1.14,1.71,1.71,0,0,0,.49,1.22,1.53,1.53,0,0,0,1.15.52A1.44,1.44,0,0,0,226.84,23.78Zm-.33-11.52a1.47,1.47,0,0,0,.25-.88,1.27,1.27,0,0,0-.25-.78,1.12,1.12,0,0,0-.73-.27,1.23,1.23,0,0,0-.82.27,1.27,1.27,0,0,0-.25.78,1.47,1.47,0,0,0,.25.88,1.28,1.28,0,0,0,.82.26A1.16,1.16,0,0,0,226.51,12.26Zm0,16.76a1.42,1.42,0,0,0,.25-.87,1.3,1.3,0,0,0-.25-.79,1.16,1.16,0,0,0-.73-.26,1.28,1.28,0,0,0-.82.26,1.3,1.3,0,0,0-.25.79A1.42,1.42,0,0,0,225,29a1.28,1.28,0,0,0,.82.26A1.16,1.16,0,0,0,226.51,29ZM226.1,6.23a.6.6,0,0,0,.17-.44.5.5,0,0,0-.17-.34.46.46,0,0,0-.32-.18.52.52,0,0,0-.41.18.5.5,0,0,0-.17.34.6.6,0,0,0,.17.44.52.52,0,0,0,.41.18A.46.46,0,0,0,226.1,6.23Zm0,27.94a.62.62,0,0,0,.17-.44.55.55,0,0,0-.17-.35.48.48,0,0,0-.32-.17.59.59,0,0,0-.58.52.62.62,0,0,0,.17.44.52.52,0,0,0,.41.18A.46.46,0,0,0,226.1,34.17Zm5.66-16.33A1.49,1.49,0,0,0,232,17a1.39,1.39,0,0,0-.24-.79,1.19,1.19,0,0,0-.74-.26,1.3,1.3,0,0,0-.82.26A1.4,1.4,0,0,0,230,17a1.49,1.49,0,0,0,.25.87,1.25,1.25,0,0,0,.82.27A1.15,1.15,0,0,0,231.76,17.84Zm0,5.59a1.49,1.49,0,0,0,.24-.87,1.39,1.39,0,0,0-.24-.79,1.19,1.19,0,0,0-.74-.26,1.3,1.3,0,0,0-.82.26,1.4,1.4,0,0,0-.25.79,1.49,1.49,0,0,0,.25.87,1.24,1.24,0,0,0,.82.26A1.13,1.13,0,0,0,231.76,23.43Zm-.41-11.61a.61.61,0,0,0,.16-.44.53.53,0,0,0-.16-.35.48.48,0,0,0-.33-.17.57.57,0,0,0-.41.17.53.53,0,0,0-.16.35.61.61,0,0,0,.16.44A.53.53,0,0,0,231,12,.45.45,0,0,0,231.35,11.82Zm0,16.76a.59.59,0,0,0,.16-.43.49.49,0,0,0-.16-.35.46.46,0,0,0-.33-.18.54.54,0,0,0-.41.18.49.49,0,0,0-.16.35.59.59,0,0,0,.16.43.54.54,0,0,0,.41.18A.46.46,0,0,0,231.35,28.58Z"/><path d="M265.1,58.88a9.82,9.82,0,0,1-7.45-3.23,11.37,11.37,0,0,1-3-7.94V14.18a11.06,11.06,0,0,1,3-7.86A9.87,9.87,0,0,1,265.1,3h41.95V14.18H265.1V25.35h31.47V36.53H265.1V47.71h41.95V58.88Z"/><path d="M328,58.88a9.84,9.84,0,0,1-7.46-3.23,11.37,11.37,0,0,1-3-7.94V14.18a11.06,11.06,0,0,1,3-7.86A9.89,9.89,0,0,1,328,3h42V14.18H328V47.71h42V58.88Z"/><path d="M401.44,58.88V14.18h-21V3H432.9V14.18h-21v44.7Z"/><path d="M446.42,33.3a11.37,11.37,0,0,1-3-7.95V14.18a11.06,11.06,0,0,1,3-7.86A9.89,9.89,0,0,1,453.88,3h41.95V14.18H453.88V25.35h10.4V36.53h-10.4A9.84,9.84,0,0,1,446.42,33.3Zm-3,25.58V47.71h41.95V36.53H474.85V25.35h10.49v.09a9.74,9.74,0,0,1,7.37,3.23,11.08,11.08,0,0,1,3.12,7.86V47.71a11,11,0,0,1-3.12,7.94,9.9,9.9,0,0,1-7.37,3.23ZM457.24,29a1.49,1.49,0,0,0,.24-.87,1.36,1.36,0,0,0-.24-.79,1.19,1.19,0,0,0-.74-.26,1.3,1.3,0,0,0-.82.26,1.37,1.37,0,0,0-.25.79,1.49,1.49,0,0,0,.25.87,1.3,1.3,0,0,0,.82.26A1.19,1.19,0,0,0,457.24,29Zm0,5.59a1.52,1.52,0,0,0,.24-.88,1.33,1.33,0,0,0-.24-.78,1.13,1.13,0,0,0-.74-.26,1.24,1.24,0,0,0-.82.26,1.34,1.34,0,0,0-.25.78,1.52,1.52,0,0,0,.25.88,1.3,1.3,0,0,0,.82.26A1.19,1.19,0,0,0,457.24,34.61ZM456.09,23a.63.63,0,0,1-.16-.44.51.51,0,0,1,.16-.35.52.52,0,0,1,.41-.17.45.45,0,0,1,.33.17.51.51,0,0,1,.16.35.63.63,0,0,1-.16.44.48.48,0,0,1-.33.17A.55.55,0,0,1,456.09,23Zm0,16.76a.61.61,0,0,1-.16-.44.53.53,0,0,1,.16-.35.55.55,0,0,1,.41-.17.48.48,0,0,1,.33.17.53.53,0,0,1,.16.35.61.61,0,0,1-.16.44.45.45,0,0,1-.33.17A.52.52,0,0,1,456.09,39.76Zm6.72-10.39a1.72,1.72,0,0,0,.49-1.22,1.63,1.63,0,0,0-.49-1.14,1.46,1.46,0,0,0-1.07-.52,1.49,1.49,0,0,0-1.14.52,1.64,1.64,0,0,0-.5,1.14,1.73,1.73,0,0,0,.5,1.22,1.49,1.49,0,0,0,1.14.52A1.46,1.46,0,0,0,462.81,29.37Zm0,5.59a1.73,1.73,0,0,0,.49-1.23,1.62,1.62,0,0,0-.49-1.13,1.46,1.46,0,0,0-1.07-.52,1.49,1.49,0,0,0-1.14.52,1.64,1.64,0,0,0-.5,1.13,1.74,1.74,0,0,0,.5,1.23,1.49,1.49,0,0,0,1.14.52A1.46,1.46,0,0,0,462.81,35Zm-1.89-11.53a1.49,1.49,0,0,1-.24-.87,1.39,1.39,0,0,1,.24-.79,1.32,1.32,0,0,1,.82-.26,1.17,1.17,0,0,1,.74.26,1.4,1.4,0,0,1,.25.79,1.49,1.49,0,0,1-.25.87,1.12,1.12,0,0,1-.74.26A1.26,1.26,0,0,1,460.92,23.43Zm0,16.77a1.54,1.54,0,0,1-.24-.88,1.33,1.33,0,0,1,.24-.78,1.26,1.26,0,0,1,.82-.26,1.12,1.12,0,0,1,.74.26,1.34,1.34,0,0,1,.25.78,1.55,1.55,0,0,1-.25.88,1.17,1.17,0,0,1-.74.26A1.32,1.32,0,0,1,460.92,40.2Zm.41-22.79a.63.63,0,0,1-.16-.44.51.51,0,0,1,.16-.35.57.57,0,0,1,.41-.17.48.48,0,0,1,.33.17.51.51,0,0,1,.16.35.63.63,0,0,1-.16.44.48.48,0,0,1-.33.17A.57.57,0,0,1,461.33,17.41Zm0,27.94a.63.63,0,0,1-.16-.44.51.51,0,0,1,.16-.35.57.57,0,0,1,.41-.17.48.48,0,0,1,.33.17.51.51,0,0,1,.16.35.63.63,0,0,1-.16.44.48.48,0,0,1-.33.17A.57.57,0,0,1,461.33,45.35Zm3-8.82V25.35h10.49V36.53Zm4.1-6.72a2.56,2.56,0,0,0,.58-1.66,2.47,2.47,0,0,0-.58-1.58A2.15,2.15,0,0,0,467,26a2.23,2.23,0,0,0-1.56.61,2.46,2.46,0,0,0-.57,1.58,2.55,2.55,0,0,0,.57,1.66,2.23,2.23,0,0,0,1.56.61A2.15,2.15,0,0,0,468.46,29.81Zm0,5.58a2.52,2.52,0,0,0,.58-1.66,2.44,2.44,0,0,0-.58-1.57,2.15,2.15,0,0,0-1.47-.61,2.23,2.23,0,0,0-1.56.61,2.43,2.43,0,0,0-.57,1.57,2.52,2.52,0,0,0,.57,1.66A2.19,2.19,0,0,0,467,36,2.1,2.1,0,0,0,468.46,35.39Zm-2.62-11.61a1.71,1.71,0,0,1-.49-1.22,1.63,1.63,0,0,1,.49-1.14A1.53,1.53,0,0,1,467,20.9a1.44,1.44,0,0,1,1.06.52,1.63,1.63,0,0,1,.49,1.14,1.71,1.71,0,0,1-.49,1.22,1.44,1.44,0,0,1-1.06.52A1.53,1.53,0,0,1,465.84,23.78Zm0,16.76a1.69,1.69,0,0,1-.49-1.22,1.62,1.62,0,0,1,.49-1.13,1.54,1.54,0,0,1,1.15-.53,1.45,1.45,0,0,1,1.06.53,1.62,1.62,0,0,1,.49,1.13,1.69,1.69,0,0,1-.49,1.22,1.45,1.45,0,0,1-1.06.53A1.54,1.54,0,0,1,465.84,40.54Zm.33-22.7a1.42,1.42,0,0,1-.25-.87,1.33,1.33,0,0,1,.25-.79,1.28,1.28,0,0,1,.82-.26,1.16,1.16,0,0,1,.73.26A1.33,1.33,0,0,1,468,17a1.42,1.42,0,0,1-.25.87,1.12,1.12,0,0,1-.73.27A1.23,1.23,0,0,1,466.17,17.84Zm0,27.94a1.42,1.42,0,0,1-.25-.87,1.27,1.27,0,0,1,.25-.78,1.23,1.23,0,0,1,.82-.27,1.12,1.12,0,0,1,.73.27,1.27,1.27,0,0,1,.25.78,1.42,1.42,0,0,1-.25.87,1.12,1.12,0,0,1-.73.27A1.23,1.23,0,0,1,466.17,45.78Zm7.54-16a2.55,2.55,0,0,0,.57-1.66,2.46,2.46,0,0,0-.57-1.58,2.15,2.15,0,0,0-1.48-.61,2.25,2.25,0,0,0-1.56.61,2.46,2.46,0,0,0-.57,1.58,2.55,2.55,0,0,0,.57,1.66,2.25,2.25,0,0,0,1.56.61A2.15,2.15,0,0,0,473.71,29.81Zm0,5.58a2.52,2.52,0,0,0,.57-1.66,2.43,2.43,0,0,0-.57-1.57,2.15,2.15,0,0,0-1.48-.61,2.25,2.25,0,0,0-1.56.61,2.43,2.43,0,0,0-.57,1.57,2.52,2.52,0,0,0,.57,1.66,2.21,2.21,0,0,0,1.56.61A2.11,2.11,0,0,0,473.71,35.39Zm-2.63-11.61a1.71,1.71,0,0,1-.49-1.22,1.63,1.63,0,0,1,.49-1.14,1.53,1.53,0,0,1,1.15-.52,1.42,1.42,0,0,1,1.06.52,1.64,1.64,0,0,1,.5,1.14,1.72,1.72,0,0,1-.5,1.22,1.42,1.42,0,0,1-1.06.52A1.53,1.53,0,0,1,471.08,23.78Zm0,16.76a1.69,1.69,0,0,1-.49-1.22,1.62,1.62,0,0,1,.49-1.13,1.54,1.54,0,0,1,1.15-.53,1.44,1.44,0,0,1,1.06.53,1.64,1.64,0,0,1,.5,1.13,1.7,1.7,0,0,1-.5,1.22,1.44,1.44,0,0,1-1.06.53A1.54,1.54,0,0,1,471.08,40.54Zm.33-22.7a1.49,1.49,0,0,1-.24-.87,1.39,1.39,0,0,1,.24-.79,1.3,1.3,0,0,1,.82-.26,1.19,1.19,0,0,1,.74.26,1.39,1.39,0,0,1,.24.79,1.49,1.49,0,0,1-.24.87,1.15,1.15,0,0,1-.74.27A1.25,1.25,0,0,1,471.41,17.84Zm0,27.94a1.49,1.49,0,0,1-.24-.87,1.33,1.33,0,0,1,.24-.78,1.25,1.25,0,0,1,.82-.27,1.15,1.15,0,0,1,.74.27,1.33,1.33,0,0,1,.24.78,1.49,1.49,0,0,1-.24.87,1.15,1.15,0,0,1-.74.27A1.25,1.25,0,0,1,471.41,45.78Zm7.13-16.41a1.72,1.72,0,0,0,.49-1.22,1.63,1.63,0,0,0-.49-1.14,1.44,1.44,0,0,0-1.07-.52,1.5,1.5,0,0,0-1.14.52,1.64,1.64,0,0,0-.5,1.14,1.73,1.73,0,0,0,.5,1.22,1.5,1.5,0,0,0,1.14.52A1.44,1.44,0,0,0,478.54,29.37Zm0,5.59a1.73,1.73,0,0,0,.49-1.23,1.62,1.62,0,0,0-.49-1.13,1.44,1.44,0,0,0-1.07-.52,1.5,1.5,0,0,0-1.14.52,1.64,1.64,0,0,0-.5,1.13,1.74,1.74,0,0,0,.5,1.23,1.5,1.5,0,0,0,1.14.52A1.44,1.44,0,0,0,478.54,35Zm-1.89-11.53a1.49,1.49,0,0,1-.24-.87,1.39,1.39,0,0,1,.24-.79,1.32,1.32,0,0,1,.82-.26,1.17,1.17,0,0,1,.74.26,1.33,1.33,0,0,1,.25.79,1.42,1.42,0,0,1-.25.87,1.12,1.12,0,0,1-.74.26A1.26,1.26,0,0,1,476.65,23.43Zm0,16.77a1.54,1.54,0,0,1-.24-.88,1.33,1.33,0,0,1,.24-.78,1.26,1.26,0,0,1,.82-.26,1.12,1.12,0,0,1,.74.26,1.27,1.27,0,0,1,.25.78,1.47,1.47,0,0,1-.25.88,1.17,1.17,0,0,1-.74.26A1.32,1.32,0,0,1,476.65,40.2Zm.41-22.79a.63.63,0,0,1-.16-.44.51.51,0,0,1,.16-.35.57.57,0,0,1,.41-.17.48.48,0,0,1,.33.17A.52.52,0,0,1,478,17a.64.64,0,0,1-.17.44.48.48,0,0,1-.33.17A.57.57,0,0,1,477.06,17.41Zm0,27.94a.63.63,0,0,1-.16-.44.51.51,0,0,1,.16-.35.57.57,0,0,1,.41-.17.48.48,0,0,1,.33.17.52.52,0,0,1,.17.35.64.64,0,0,1-.17.44.48.48,0,0,1-.33.17A.57.57,0,0,1,477.06,45.35ZM483.46,29a1.49,1.49,0,0,0,.24-.87,1.36,1.36,0,0,0-.24-.79,1.19,1.19,0,0,0-.74-.26.92.92,0,0,0-1.07,1,1.42,1.42,0,0,0,.25.87,1.3,1.3,0,0,0,.82.26A1.19,1.19,0,0,0,483.46,29Zm0,5.59a1.52,1.52,0,0,0,.24-.88,1.33,1.33,0,0,0-.24-.78,1.13,1.13,0,0,0-.74-.26,1.24,1.24,0,0,0-.82.26,1.27,1.27,0,0,0-.25.78,1.45,1.45,0,0,0,.25.88,1.3,1.3,0,0,0,.82.26A1.19,1.19,0,0,0,483.46,34.61ZM482.31,23a.64.64,0,0,1-.17-.44.52.52,0,0,1,.17-.35.52.52,0,0,1,.41-.17.41.41,0,0,1,.32.17.52.52,0,0,1,.17.35A.64.64,0,0,1,483,23a.45.45,0,0,1-.32.17A.55.55,0,0,1,482.31,23Zm0,16.76a.62.62,0,0,1-.17-.44.59.59,0,0,1,.58-.52A.45.45,0,0,1,483,39a.55.55,0,0,1,.17.35.62.62,0,0,1-.17.44.41.41,0,0,1-.32.17A.52.52,0,0,1,482.31,39.76Z"/><path class="cls-1" d="M0,55.88V11.26H5.16v-.08H0V0H10.41V11.18H5.24v.08h5.17V33.53h.08V55.88Zm3.36-41A1.49,1.49,0,0,0,3.6,14a1.39,1.39,0,0,0-.24-.79,1.19,1.19,0,0,0-.74-.26,1.3,1.3,0,0,0-.82.26,1.39,1.39,0,0,0-.24.79,1.49,1.49,0,0,0,.24.87,1.25,1.25,0,0,0,.82.27A1.15,1.15,0,0,0,3.36,14.84Zm0,5.59a1.49,1.49,0,0,0,.24-.87,1.39,1.39,0,0,0-.24-.79,1.19,1.19,0,0,0-.74-.26,1.3,1.3,0,0,0-.82.26,1.39,1.39,0,0,0-.24.79,1.49,1.49,0,0,0,.24.87,1.24,1.24,0,0,0,.82.26A1.13,1.13,0,0,0,3.36,20.43ZM3,8.82a.61.61,0,0,0,.16-.44A.53.53,0,0,0,3,8a.48.48,0,0,0-.33-.17A.57.57,0,0,0,2.21,8a.53.53,0,0,0-.16.35.61.61,0,0,0,.16.44A.53.53,0,0,0,2.62,9,.45.45,0,0,0,3,8.82ZM3,25.58a.59.59,0,0,0,.16-.43A.49.49,0,0,0,3,24.8a.46.46,0,0,0-.33-.18.54.54,0,0,0-.41.18.49.49,0,0,0-.16.35.59.59,0,0,0,.16.43.54.54,0,0,0,.41.18A.46.46,0,0,0,3,25.58Zm6-10.39A1.71,1.71,0,0,0,9.42,14a1.59,1.59,0,0,0-.49-1.13,1.45,1.45,0,0,0-1.06-.53,1.54,1.54,0,0,0-1.15.53A1.59,1.59,0,0,0,6.23,14a1.71,1.71,0,0,0,.49,1.22,1.54,1.54,0,0,0,1.15.53A1.45,1.45,0,0,0,8.93,15.19Zm0,5.59a1.71,1.71,0,0,0,.49-1.22,1.63,1.63,0,0,0-.49-1.14,1.44,1.44,0,0,0-1.06-.52,1.53,1.53,0,0,0-1.15.52,1.63,1.63,0,0,0-.49,1.14,1.71,1.71,0,0,0,.49,1.22,1.53,1.53,0,0,0,1.15.52A1.44,1.44,0,0,0,8.93,20.78ZM8.6,9.26a1.47,1.47,0,0,0,.25-.88A1.27,1.27,0,0,0,8.6,7.6a1.12,1.12,0,0,0-.73-.27,1.23,1.23,0,0,0-.82.27,1.27,1.27,0,0,0-.25.78,1.47,1.47,0,0,0,.25.88,1.28,1.28,0,0,0,.82.26A1.16,1.16,0,0,0,8.6,9.26ZM8.6,26a1.42,1.42,0,0,0,.25-.87,1.3,1.3,0,0,0-.25-.79,1.16,1.16,0,0,0-.73-.26,1.28,1.28,0,0,0-.82.26,1.3,1.3,0,0,0-.25.79,1.42,1.42,0,0,0,.25.87,1.28,1.28,0,0,0,.82.26A1.16,1.16,0,0,0,8.6,26ZM8.19,3.23a.6.6,0,0,0,.17-.44.5.5,0,0,0-.17-.34.46.46,0,0,0-.32-.18.51.51,0,0,0-.41.18.5.5,0,0,0-.17.34.6.6,0,0,0,.17.44.51.51,0,0,0,.41.18A.46.46,0,0,0,8.19,3.23Zm0,27.94a.62.62,0,0,0,.17-.44.55.55,0,0,0-.17-.35.48.48,0,0,0-.32-.17.53.53,0,0,0-.41.17.55.55,0,0,0-.17.35.62.62,0,0,0,.17.44.51.51,0,0,0,.41.18A.46.46,0,0,0,8.19,31.17Zm2.3,2.45V28h-.08v-.09h.08v-5.5h21v-.09H42V11.18H10.49V5.59h0V0H42a9.62,9.62,0,0,1,7.37,3.32,11.08,11.08,0,0,1,3.12,7.86V22.35a11,11,0,0,1-3.12,8A9.9,9.9,0,0,1,42,33.53H26.22v.09Zm-.08-22.44h0Zm0,11.26v-.09h.08v.09Zm1.14-6.81A2.55,2.55,0,0,1,11,14a2.43,2.43,0,0,1,.57-1.57,2.21,2.21,0,0,1,1.56-.61,2.08,2.08,0,0,1,1.47.61A2.39,2.39,0,0,1,15.16,14a2.51,2.51,0,0,1-.58,1.66,2.08,2.08,0,0,1-1.47.61A2.21,2.21,0,0,1,11.55,15.63Zm0,5.59A2.55,2.55,0,0,1,11,19.56,2.41,2.41,0,0,1,11.55,18a2.21,2.21,0,0,1,1.56-.61,2.08,2.08,0,0,1,1.47.61,2.37,2.37,0,0,1,.58,1.57,2.51,2.51,0,0,1-.58,1.66,2.08,2.08,0,0,1-1.47.61A2.21,2.21,0,0,1,11.55,21.22ZM14.17,9.61a1.74,1.74,0,0,0,.5-1.23,1.64,1.64,0,0,0-.5-1.13,1.44,1.44,0,0,0-1.06-.53A1.54,1.54,0,0,0,12,7.25a1.62,1.62,0,0,0-.49,1.13A1.73,1.73,0,0,0,12,9.61a1.56,1.56,0,0,0,1.15.52A1.46,1.46,0,0,0,14.17,9.61Zm0,16.76a1.73,1.73,0,0,0,.5-1.22,1.64,1.64,0,0,0-.5-1.14,1.42,1.42,0,0,0-1.06-.52A1.53,1.53,0,0,0,12,24a1.63,1.63,0,0,0-.49,1.14A1.72,1.72,0,0,0,12,26.37a1.53,1.53,0,0,0,1.15.52A1.42,1.42,0,0,0,14.17,26.37Zm-.32-22.7a1.52,1.52,0,0,0,.24-.88A1.33,1.33,0,0,0,13.85,2a1.13,1.13,0,0,0-.74-.26,1.24,1.24,0,0,0-.82.26,1.34,1.34,0,0,0-.25.78,1.52,1.52,0,0,0,.25.88,1.3,1.3,0,0,0,.82.26A1.19,1.19,0,0,0,13.85,3.67Zm0,27.94a1.52,1.52,0,0,0,.24-.88,1.33,1.33,0,0,0-.24-.78,1.13,1.13,0,0,0-.74-.26,1.24,1.24,0,0,0-.82.26,1.34,1.34,0,0,0-.25.78,1.52,1.52,0,0,0,.25.88,1.3,1.3,0,0,0,.82.26A1.19,1.19,0,0,0,13.85,31.61Zm3-16A2.51,2.51,0,0,1,16.22,14a2.39,2.39,0,0,1,.58-1.57,2.17,2.17,0,0,1,1.55-.61,2.11,2.11,0,0,1,1.48.61A2.43,2.43,0,0,1,20.4,14a2.55,2.55,0,0,1-.57,1.66,2.11,2.11,0,0,1-1.48.61A2.17,2.17,0,0,1,16.8,15.63Zm0,5.59a2.51,2.51,0,0,1-.58-1.66A2.37,2.37,0,0,1,16.8,18a2.17,2.17,0,0,1,1.55-.61,2.11,2.11,0,0,1,1.48.61,2.41,2.41,0,0,1,.57,1.57,2.55,2.55,0,0,1-.57,1.66,2.11,2.11,0,0,1-1.48.61A2.17,2.17,0,0,1,16.8,21.22ZM19.42,9.61a1.73,1.73,0,0,0,.49-1.23,1.62,1.62,0,0,0-.49-1.13,1.47,1.47,0,0,0-1.07-.53,1.52,1.52,0,0,0-1.14.53,1.64,1.64,0,0,0-.5,1.13,1.74,1.74,0,0,0,.5,1.23,1.54,1.54,0,0,0,1.14.52A1.5,1.5,0,0,0,19.42,9.61Zm0,16.76a1.72,1.72,0,0,0,.49-1.22A1.63,1.63,0,0,0,19.42,24a1.46,1.46,0,0,0-1.07-.52,1.5,1.5,0,0,0-1.14.52,1.64,1.64,0,0,0-.5,1.14,1.73,1.73,0,0,0,.5,1.22,1.5,1.5,0,0,0,1.14.52A1.46,1.46,0,0,0,19.42,26.37Zm-.33-22.7a1.52,1.52,0,0,0,.25-.88A1.34,1.34,0,0,0,19.09,2a1.12,1.12,0,0,0-.74-.26,1.26,1.26,0,0,0-.82.26,1.33,1.33,0,0,0-.24.78,1.52,1.52,0,0,0,.24.88,1.32,1.32,0,0,0,.82.26A1.17,1.17,0,0,0,19.09,3.67Zm0,27.94a1.52,1.52,0,0,0,.25-.88,1.34,1.34,0,0,0-.25-.78,1.12,1.12,0,0,0-.74-.26,1.26,1.26,0,0,0-.82.26,1.33,1.33,0,0,0-.24.78,1.52,1.52,0,0,0,.24.88,1.32,1.32,0,0,0,.82.26A1.17,1.17,0,0,0,19.09,31.61ZM21,22.35v0Zm1.48-7.16A1.71,1.71,0,0,1,22,14a1.59,1.59,0,0,1,.49-1.13,1.54,1.54,0,0,1,1.15-.53,1.45,1.45,0,0,1,1.06.53A1.59,1.59,0,0,1,25.15,14a1.71,1.71,0,0,1-.49,1.22,1.45,1.45,0,0,1-1.06.53A1.54,1.54,0,0,1,22.45,15.19Zm0,5.59A1.71,1.71,0,0,1,22,19.56a1.63,1.63,0,0,1,.49-1.14,1.53,1.53,0,0,1,1.15-.52,1.44,1.44,0,0,1,1.06.52,1.63,1.63,0,0,1,.49,1.14,1.71,1.71,0,0,1-.49,1.22,1.44,1.44,0,0,1-1.06.52A1.53,1.53,0,0,1,22.45,20.78ZM24.33,9.26a1.47,1.47,0,0,0,.25-.88,1.27,1.27,0,0,0-.25-.78,1.1,1.1,0,0,0-.73-.27,1.25,1.25,0,0,0-.82.27,1.27,1.27,0,0,0-.25.78,1.47,1.47,0,0,0,.25.88,1.3,1.3,0,0,0,.82.26A1.14,1.14,0,0,0,24.33,9.26Zm0,16.76a1.42,1.42,0,0,0,.25-.87,1.3,1.3,0,0,0-.25-.79,1.14,1.14,0,0,0-.73-.26,1.3,1.3,0,0,0-.82.26,1.3,1.3,0,0,0-.25.79,1.42,1.42,0,0,0,.25.87,1.3,1.3,0,0,0,.82.26A1.14,1.14,0,0,0,24.33,26ZM23.92,3.23a.6.6,0,0,0,.17-.44.5.5,0,0,0-.17-.34.44.44,0,0,0-.32-.18.52.52,0,0,0-.41.18.5.5,0,0,0-.17.34.6.6,0,0,0,.17.44.52.52,0,0,0,.41.18A.44.44,0,0,0,23.92,3.23Zm0,27.94a.62.62,0,0,0,.17-.44.55.55,0,0,0-.17-.35.46.46,0,0,0-.32-.17.59.59,0,0,0-.58.52.62.62,0,0,0,.17.44.52.52,0,0,0,.41.18A.44.44,0,0,0,23.92,31.17Zm2.3-8.82v0ZM28,14.84a1.49,1.49,0,0,1-.24-.87,1.39,1.39,0,0,1,.24-.79,1.3,1.3,0,0,1,.82-.26,1.19,1.19,0,0,1,.74.26,1.39,1.39,0,0,1,.24.79,1.49,1.49,0,0,1-.24.87,1.15,1.15,0,0,1-.74.27A1.25,1.25,0,0,1,28,14.84Zm0,5.59a1.49,1.49,0,0,1-.24-.87,1.39,1.39,0,0,1,.24-.79,1.3,1.3,0,0,1,.82-.26,1.19,1.19,0,0,1,.74.26,1.39,1.39,0,0,1,.24.79,1.49,1.49,0,0,1-.24.87,1.13,1.13,0,0,1-.74.26A1.24,1.24,0,0,1,28,20.43ZM29.17,8.82a.61.61,0,0,0,.16-.44A.53.53,0,0,0,29.17,8a.48.48,0,0,0-.33-.17.57.57,0,0,0-.41.17.53.53,0,0,0-.16.35.61.61,0,0,0,.16.44.53.53,0,0,0,.41.17A.45.45,0,0,0,29.17,8.82Zm0,16.76a.59.59,0,0,0,.16-.43.49.49,0,0,0-.16-.35.46.46,0,0,0-.33-.18.54.54,0,0,0-.41.18.49.49,0,0,0-.16.35.59.59,0,0,0,.16.43.54.54,0,0,0,.41.18A.46.46,0,0,0,29.17,25.58Z"/><path class="cls-1" d="M62.84,55.88V0h42a9.63,9.63,0,0,1,7.38,3.32,11.11,11.11,0,0,1,3.11,7.86V22.35a11,11,0,0,1-3.11,8,9.94,9.94,0,0,1-7.38,3.23l10.49,22.35H104.79L94.31,33.53h-21V55.88Zm42-33.53V11.18H73.33V22.35Z"/><path class="cls-1" d="M136.25,55.88a9.82,9.82,0,0,1-7.45-3.23,11.37,11.37,0,0,1-3-7.94V11.18a11.06,11.06,0,0,1,3-7.86A9.87,9.87,0,0,1,136.25,0h31.47a9.62,9.62,0,0,1,7.37,3.32,11.07,11.07,0,0,1,3.11,7.86V44.71a11,11,0,0,1-3.11,7.94,9.91,9.91,0,0,1-7.37,3.23Zm31.47-11.17V11.18H136.25V44.71Z"/><path class="cls-1" d="M188.69,11.18V0h20.89V5.59h.09V0h31.46V11.18H209.67V5.59h-.09v5.59H188.69Zm10.49,44.7a9.84,9.84,0,0,1-7.46-3.23,11.37,11.37,0,0,1-3-7.94V33.53h10.49V44.71h21V11.26h5.25v0h5.24V44.71a11,11,0,0,1-3.11,7.94,9.94,9.94,0,0,1-7.38,3.23Zm1.8-41a1.49,1.49,0,0,1-.24-.87,1.39,1.39,0,0,1,.24-.79,1.3,1.3,0,0,1,.82-.26,1.19,1.19,0,0,1,.74.26,1.39,1.39,0,0,1,.24.79,1.49,1.49,0,0,1-.24.87,1.15,1.15,0,0,1-.74.27A1.25,1.25,0,0,1,201,14.84Zm0,5.59a1.49,1.49,0,0,1-.24-.87,1.39,1.39,0,0,1,.24-.79,1.3,1.3,0,0,1,.82-.26,1.19,1.19,0,0,1,.74.26,1.39,1.39,0,0,1,.24.79,1.49,1.49,0,0,1-.24.87,1.13,1.13,0,0,1-.74.26A1.24,1.24,0,0,1,201,20.43Zm1.15-11.61a.61.61,0,0,0,.16-.44.53.53,0,0,0-.16-.35.48.48,0,0,0-.33-.17.57.57,0,0,0-.41.17.53.53,0,0,0-.16.35.61.61,0,0,0,.16.44.53.53,0,0,0,.41.17A.45.45,0,0,0,202.13,8.82Zm-.74,16.76a.59.59,0,0,1-.16-.43.49.49,0,0,1,.16-.35.54.54,0,0,1,.41-.18.46.46,0,0,1,.33.18.49.49,0,0,1,.16.35.59.59,0,0,1-.16.43.46.46,0,0,1-.33.18A.54.54,0,0,1,201.39,25.58Zm3-14.4h0Zm1.56,4a1.71,1.71,0,0,1-.49-1.22,1.59,1.59,0,0,1,.49-1.13,1.53,1.53,0,0,1,1.14-.53,1.46,1.46,0,0,1,1.07.53A1.59,1.59,0,0,1,208.6,14a1.71,1.71,0,0,1-.49,1.22,1.46,1.46,0,0,1-1.07.53A1.53,1.53,0,0,1,205.9,15.19Zm0,5.59a1.71,1.71,0,0,1-.49-1.22,1.63,1.63,0,0,1,.49-1.14A1.52,1.52,0,0,1,207,17.9a1.44,1.44,0,0,1,1.07.52,1.63,1.63,0,0,1,.49,1.14,1.71,1.71,0,0,1-.49,1.22,1.44,1.44,0,0,1-1.07.52A1.52,1.52,0,0,1,205.9,20.78Zm1.88-11.52a1.47,1.47,0,0,0,.25-.88,1.27,1.27,0,0,0-.25-.78,1.13,1.13,0,0,0-.74-.27,1.22,1.22,0,0,0-.81.27,1.27,1.27,0,0,0-.25.78,1.47,1.47,0,0,0,.25.88,1.27,1.27,0,0,0,.81.26A1.17,1.17,0,0,0,207.78,9.26ZM206.23,26a1.42,1.42,0,0,1-.25-.87,1.3,1.3,0,0,1,.25-.79,1.27,1.27,0,0,1,.81-.26,1.17,1.17,0,0,1,.74.26,1.3,1.3,0,0,1,.25.79,1.42,1.42,0,0,1-.25.87,1.17,1.17,0,0,1-.74.26A1.27,1.27,0,0,1,206.23,26Zm1.14-22.79a.6.6,0,0,0,.17-.44.5.5,0,0,0-.17-.34.46.46,0,0,0-.33-.18.5.5,0,0,0-.4.18.46.46,0,0,0-.17.34.57.57,0,0,0,.17.44.5.5,0,0,0,.4.18A.46.46,0,0,0,207.37,3.23Zm-.73,27.94a.58.58,0,0,1-.17-.44.5.5,0,0,1,.17-.35.53.53,0,0,1,.4-.17.48.48,0,0,1,.33.17.55.55,0,0,1,.17.35.62.62,0,0,1-.17.44.46.46,0,0,1-.33.18A.5.5,0,0,1,206.64,31.17Zm2.94-20h0Zm1.15,4.45a2.55,2.55,0,0,1-.57-1.66,2.43,2.43,0,0,1,.57-1.57,2.21,2.21,0,0,1,1.56-.61,2.08,2.08,0,0,1,1.47.61,2.39,2.39,0,0,1,.58,1.57,2.51,2.51,0,0,1-.58,1.66,2.08,2.08,0,0,1-1.47.61A2.21,2.21,0,0,1,210.73,15.63Zm0,5.59a2.55,2.55,0,0,1-.57-1.66,2.41,2.41,0,0,1,.57-1.57,2.21,2.21,0,0,1,1.56-.61,2.08,2.08,0,0,1,1.47.61,2.37,2.37,0,0,1,.58,1.57,2.51,2.51,0,0,1-.58,1.66,2.08,2.08,0,0,1-1.47.61A2.21,2.21,0,0,1,210.73,21.22Zm2.62-11.61a1.74,1.74,0,0,0,.5-1.23,1.64,1.64,0,0,0-.5-1.13,1.44,1.44,0,0,0-1.06-.53,1.54,1.54,0,0,0-1.15.53,1.62,1.62,0,0,0-.49,1.13,1.73,1.73,0,0,0,.49,1.23,1.56,1.56,0,0,0,1.15.52A1.46,1.46,0,0,0,213.35,9.61Zm-2.21,16.76a1.72,1.72,0,0,1-.49-1.22,1.63,1.63,0,0,1,.49-1.14,1.53,1.53,0,0,1,1.15-.52,1.42,1.42,0,0,1,1.06.52,1.64,1.64,0,0,1,.5,1.14,1.73,1.73,0,0,1-.5,1.22,1.42,1.42,0,0,1-1.06.52A1.53,1.53,0,0,1,211.14,26.37ZM213,3.67a1.52,1.52,0,0,0,.24-.88A1.33,1.33,0,0,0,213,2a1.13,1.13,0,0,0-.74-.26,1.24,1.24,0,0,0-.82.26,1.34,1.34,0,0,0-.25.78,1.52,1.52,0,0,0,.25.88,1.3,1.3,0,0,0,.82.26A1.19,1.19,0,0,0,213,3.67Zm-1.56,27.94a1.52,1.52,0,0,1-.25-.88,1.34,1.34,0,0,1,.25-.78,1.24,1.24,0,0,1,.82-.26A1.13,1.13,0,0,1,213,30a1.33,1.33,0,0,1,.24.78,1.52,1.52,0,0,1-.24.88,1.19,1.19,0,0,1-.74.26A1.3,1.3,0,0,1,211.47,31.61Zm4.51-16A2.51,2.51,0,0,1,215.4,14,2.39,2.39,0,0,1,216,12.4a2.17,2.17,0,0,1,1.55-.61,2.11,2.11,0,0,1,1.48.61,2.43,2.43,0,0,1,.57,1.57,2.55,2.55,0,0,1-.57,1.66,2.11,2.11,0,0,1-1.48.61A2.17,2.17,0,0,1,216,15.63Zm0,5.59a2.51,2.51,0,0,1-.58-1.66A2.37,2.37,0,0,1,216,18a2.17,2.17,0,0,1,1.55-.61A2.11,2.11,0,0,1,219,18a2.41,2.41,0,0,1,.57,1.57,2.55,2.55,0,0,1-.57,1.66,2.11,2.11,0,0,1-1.48.61A2.17,2.17,0,0,1,216,21.22ZM218.6,9.61a1.73,1.73,0,0,0,.49-1.23,1.62,1.62,0,0,0-.49-1.13,1.47,1.47,0,0,0-1.07-.53,1.5,1.5,0,0,0-1.14.53,1.64,1.64,0,0,0-.5,1.13,1.74,1.74,0,0,0,.5,1.23,1.52,1.52,0,0,0,1.14.52A1.5,1.5,0,0,0,218.6,9.61Zm-2.21,16.76a1.73,1.73,0,0,1-.5-1.22,1.64,1.64,0,0,1,.5-1.14,1.49,1.49,0,0,1,1.14-.52,1.46,1.46,0,0,1,1.07.52,1.63,1.63,0,0,1,.49,1.14,1.72,1.72,0,0,1-.49,1.22,1.46,1.46,0,0,1-1.07.52A1.49,1.49,0,0,1,216.39,26.37Zm1.88-22.7a1.52,1.52,0,0,0,.25-.88,1.34,1.34,0,0,0-.25-.78,1.12,1.12,0,0,0-.74-.26,1.24,1.24,0,0,0-.82.26,1.33,1.33,0,0,0-.24.78,1.52,1.52,0,0,0,.24.88,1.3,1.3,0,0,0,.82.26A1.17,1.17,0,0,0,218.27,3.67Zm-1.56,27.94a1.52,1.52,0,0,1-.24-.88,1.33,1.33,0,0,1,.24-.78,1.24,1.24,0,0,1,.82-.26,1.12,1.12,0,0,1,.74.26,1.34,1.34,0,0,1,.25.78,1.52,1.52,0,0,1-.25.88,1.17,1.17,0,0,1-.74.26A1.3,1.3,0,0,1,216.71,31.61Zm3.44-9.26v0Zm0,5.59v0Zm3.69-12.75a1.71,1.71,0,0,0,.49-1.22,1.59,1.59,0,0,0-.49-1.13,1.45,1.45,0,0,0-1.06-.53,1.54,1.54,0,0,0-1.15.53,1.59,1.59,0,0,0-.49,1.13,1.71,1.71,0,0,0,.49,1.22,1.54,1.54,0,0,0,1.15.53A1.45,1.45,0,0,0,223.84,15.19Zm0,5.59a1.71,1.71,0,0,0,.49-1.22,1.63,1.63,0,0,0-.49-1.14,1.44,1.44,0,0,0-1.06-.52,1.53,1.53,0,0,0-1.15.52,1.63,1.63,0,0,0-.49,1.14,1.71,1.71,0,0,0,.49,1.22,1.53,1.53,0,0,0,1.15.52A1.44,1.44,0,0,0,223.84,20.78Zm-.33-11.52a1.47,1.47,0,0,0,.25-.88,1.27,1.27,0,0,0-.25-.78,1.12,1.12,0,0,0-.73-.27,1.23,1.23,0,0,0-.82.27,1.27,1.27,0,0,0-.25.78,1.47,1.47,0,0,0,.25.88,1.28,1.28,0,0,0,.82.26A1.16,1.16,0,0,0,223.51,9.26Zm0,16.76a1.42,1.42,0,0,0,.25-.87,1.3,1.3,0,0,0-.25-.79,1.16,1.16,0,0,0-.73-.26,1.28,1.28,0,0,0-.82.26,1.3,1.3,0,0,0-.25.79A1.42,1.42,0,0,0,222,26a1.28,1.28,0,0,0,.82.26A1.16,1.16,0,0,0,223.51,26ZM223.1,3.23a.6.6,0,0,0,.17-.44.5.5,0,0,0-.17-.34.46.46,0,0,0-.32-.18.52.52,0,0,0-.41.18.5.5,0,0,0-.17.34.6.6,0,0,0,.17.44.52.52,0,0,0,.41.18A.46.46,0,0,0,223.1,3.23Zm0,27.94a.62.62,0,0,0,.17-.44.55.55,0,0,0-.17-.35.48.48,0,0,0-.32-.17.59.59,0,0,0-.58.52.62.62,0,0,0,.17.44.52.52,0,0,0,.41.18A.46.46,0,0,0,223.1,31.17Zm5.66-16.33A1.49,1.49,0,0,0,229,14a1.39,1.39,0,0,0-.24-.79,1.19,1.19,0,0,0-.74-.26,1.3,1.3,0,0,0-.82.26A1.4,1.4,0,0,0,227,14a1.49,1.49,0,0,0,.25.87,1.25,1.25,0,0,0,.82.27A1.15,1.15,0,0,0,228.76,14.84Zm0,5.59a1.49,1.49,0,0,0,.24-.87,1.39,1.39,0,0,0-.24-.79,1.19,1.19,0,0,0-.74-.26,1.3,1.3,0,0,0-.82.26,1.4,1.4,0,0,0-.25.79,1.49,1.49,0,0,0,.25.87,1.24,1.24,0,0,0,.82.26A1.13,1.13,0,0,0,228.76,20.43Zm-.41-11.61a.61.61,0,0,0,.16-.44.53.53,0,0,0-.16-.35.48.48,0,0,0-.33-.17.57.57,0,0,0-.41.17.53.53,0,0,0-.16.35.61.61,0,0,0,.16.44A.53.53,0,0,0,228,9,.45.45,0,0,0,228.35,8.82Zm0,16.76a.59.59,0,0,0,.16-.43.49.49,0,0,0-.16-.35.46.46,0,0,0-.33-.18.54.54,0,0,0-.41.18.49.49,0,0,0-.16.35.59.59,0,0,0,.16.43.54.54,0,0,0,.41.18A.46.46,0,0,0,228.35,25.58Z"/><path class="cls-1" d="M262.1,55.88a9.82,9.82,0,0,1-7.45-3.23,11.37,11.37,0,0,1-3-7.94V11.18a11.06,11.06,0,0,1,3-7.86A9.87,9.87,0,0,1,262.1,0h41.95V11.18H262.1V22.35h31.47V33.53H262.1V44.71h41.95V55.88Z"/><path class="cls-1" d="M325,55.88a9.84,9.84,0,0,1-7.46-3.23,11.37,11.37,0,0,1-3-7.94V11.18a11.06,11.06,0,0,1,3-7.86A9.89,9.89,0,0,1,325,0h42V11.18H325V44.71h42V55.88Z"/><path class="cls-1" d="M398.44,55.88V11.18h-21V0H429.9V11.18h-21v44.7Z"/><path class="cls-1" d="M443.42,30.3a11.37,11.37,0,0,1-3-7.95V11.18a11.06,11.06,0,0,1,3-7.86A9.89,9.89,0,0,1,450.88,0h41.95V11.18H450.88V22.35h10.4V33.53h-10.4A9.84,9.84,0,0,1,443.42,30.3Zm-3,25.58V44.71h41.95V33.53H471.85V22.35h10.49v.09a9.74,9.74,0,0,1,7.37,3.23,11.08,11.08,0,0,1,3.12,7.86V44.71a11,11,0,0,1-3.12,7.94,9.9,9.9,0,0,1-7.37,3.23ZM454.24,26a1.49,1.49,0,0,0,.24-.87,1.36,1.36,0,0,0-.24-.79,1.19,1.19,0,0,0-.74-.26,1.3,1.3,0,0,0-.82.26,1.37,1.37,0,0,0-.25.79,1.49,1.49,0,0,0,.25.87,1.3,1.3,0,0,0,.82.26A1.19,1.19,0,0,0,454.24,26Zm0,5.59a1.52,1.52,0,0,0,.24-.88,1.33,1.33,0,0,0-.24-.78,1.13,1.13,0,0,0-.74-.26,1.24,1.24,0,0,0-.82.26,1.34,1.34,0,0,0-.25.78,1.52,1.52,0,0,0,.25.88,1.3,1.3,0,0,0,.82.26A1.19,1.19,0,0,0,454.24,31.61ZM453.09,20a.63.63,0,0,1-.16-.44.51.51,0,0,1,.16-.35.52.52,0,0,1,.41-.17.45.45,0,0,1,.33.17.51.51,0,0,1,.16.35.63.63,0,0,1-.16.44.48.48,0,0,1-.33.17A.55.55,0,0,1,453.09,20Zm0,16.76a.61.61,0,0,1-.16-.44.53.53,0,0,1,.16-.35.55.55,0,0,1,.41-.17.48.48,0,0,1,.33.17.53.53,0,0,1,.16.35.61.61,0,0,1-.16.44.45.45,0,0,1-.33.17A.52.52,0,0,1,453.09,36.76Zm6.72-10.39a1.72,1.72,0,0,0,.49-1.22,1.63,1.63,0,0,0-.49-1.14,1.46,1.46,0,0,0-1.07-.52,1.49,1.49,0,0,0-1.14.52,1.64,1.64,0,0,0-.5,1.14,1.73,1.73,0,0,0,.5,1.22,1.49,1.49,0,0,0,1.14.52A1.46,1.46,0,0,0,459.81,26.37Zm0,5.59a1.73,1.73,0,0,0,.49-1.23,1.62,1.62,0,0,0-.49-1.13,1.46,1.46,0,0,0-1.07-.52,1.49,1.49,0,0,0-1.14.52,1.64,1.64,0,0,0-.5,1.13,1.74,1.74,0,0,0,.5,1.23,1.49,1.49,0,0,0,1.14.52A1.46,1.46,0,0,0,459.81,32Zm-1.89-11.53a1.49,1.49,0,0,1-.24-.87,1.39,1.39,0,0,1,.24-.79,1.32,1.32,0,0,1,.82-.26,1.17,1.17,0,0,1,.74.26,1.4,1.4,0,0,1,.25.79,1.49,1.49,0,0,1-.25.87,1.12,1.12,0,0,1-.74.26A1.26,1.26,0,0,1,457.92,20.43Zm0,16.77a1.54,1.54,0,0,1-.24-.88,1.33,1.33,0,0,1,.24-.78,1.26,1.26,0,0,1,.82-.26,1.12,1.12,0,0,1,.74.26,1.34,1.34,0,0,1,.25.78,1.55,1.55,0,0,1-.25.88,1.17,1.17,0,0,1-.74.26A1.32,1.32,0,0,1,457.92,37.2Zm.41-22.79a.63.63,0,0,1-.16-.44.51.51,0,0,1,.16-.35.57.57,0,0,1,.41-.17.48.48,0,0,1,.33.17.51.51,0,0,1,.16.35.63.63,0,0,1-.16.44.48.48,0,0,1-.33.17A.57.57,0,0,1,458.33,14.41Zm0,27.94a.63.63,0,0,1-.16-.44.51.51,0,0,1,.16-.35.57.57,0,0,1,.41-.17.48.48,0,0,1,.33.17.51.51,0,0,1,.16.35.63.63,0,0,1-.16.44.48.48,0,0,1-.33.17A.57.57,0,0,1,458.33,42.35Zm3-8.82V22.35h10.49V33.53Zm4.1-6.72a2.56,2.56,0,0,0,.58-1.66,2.47,2.47,0,0,0-.58-1.58A2.15,2.15,0,0,0,464,23a2.23,2.23,0,0,0-1.56.61,2.46,2.46,0,0,0-.57,1.58,2.55,2.55,0,0,0,.57,1.66,2.23,2.23,0,0,0,1.56.61A2.15,2.15,0,0,0,465.46,26.81Zm0,5.58a2.52,2.52,0,0,0,.58-1.66,2.44,2.44,0,0,0-.58-1.57,2.15,2.15,0,0,0-1.47-.61,2.23,2.23,0,0,0-1.56.61,2.43,2.43,0,0,0-.57,1.57,2.52,2.52,0,0,0,.57,1.66A2.19,2.19,0,0,0,464,33,2.1,2.1,0,0,0,465.46,32.39Zm-2.62-11.61a1.71,1.71,0,0,1-.49-1.22,1.63,1.63,0,0,1,.49-1.14A1.53,1.53,0,0,1,464,17.9a1.44,1.44,0,0,1,1.06.52,1.63,1.63,0,0,1,.49,1.14,1.71,1.71,0,0,1-.49,1.22,1.44,1.44,0,0,1-1.06.52A1.53,1.53,0,0,1,462.84,20.78Zm0,16.76a1.69,1.69,0,0,1-.49-1.22,1.62,1.62,0,0,1,.49-1.13,1.54,1.54,0,0,1,1.15-.53,1.45,1.45,0,0,1,1.06.53,1.62,1.62,0,0,1,.49,1.13,1.69,1.69,0,0,1-.49,1.22,1.45,1.45,0,0,1-1.06.53A1.54,1.54,0,0,1,462.84,37.54Zm.33-22.7a1.42,1.42,0,0,1-.25-.87,1.33,1.33,0,0,1,.25-.79,1.28,1.28,0,0,1,.82-.26,1.16,1.16,0,0,1,.73.26A1.33,1.33,0,0,1,465,14a1.42,1.42,0,0,1-.25.87,1.12,1.12,0,0,1-.73.27A1.23,1.23,0,0,1,463.17,14.84Zm0,27.94a1.42,1.42,0,0,1-.25-.87,1.27,1.27,0,0,1,.25-.78,1.23,1.23,0,0,1,.82-.27,1.12,1.12,0,0,1,.73.27,1.27,1.27,0,0,1,.25.78,1.42,1.42,0,0,1-.25.87,1.12,1.12,0,0,1-.73.27A1.23,1.23,0,0,1,463.17,42.78Zm7.54-16a2.55,2.55,0,0,0,.57-1.66,2.46,2.46,0,0,0-.57-1.58,2.15,2.15,0,0,0-1.48-.61,2.25,2.25,0,0,0-1.56.61,2.46,2.46,0,0,0-.57,1.58,2.55,2.55,0,0,0,.57,1.66,2.25,2.25,0,0,0,1.56.61A2.15,2.15,0,0,0,470.71,26.81Zm0,5.58a2.52,2.52,0,0,0,.57-1.66,2.43,2.43,0,0,0-.57-1.57,2.15,2.15,0,0,0-1.48-.61,2.25,2.25,0,0,0-1.56.61,2.43,2.43,0,0,0-.57,1.57,2.52,2.52,0,0,0,.57,1.66,2.21,2.21,0,0,0,1.56.61A2.11,2.11,0,0,0,470.71,32.39Zm-2.63-11.61a1.71,1.71,0,0,1-.49-1.22,1.63,1.63,0,0,1,.49-1.14,1.53,1.53,0,0,1,1.15-.52,1.42,1.42,0,0,1,1.06.52,1.64,1.64,0,0,1,.5,1.14,1.72,1.72,0,0,1-.5,1.22,1.42,1.42,0,0,1-1.06.52A1.53,1.53,0,0,1,468.08,20.78Zm0,16.76a1.69,1.69,0,0,1-.49-1.22,1.62,1.62,0,0,1,.49-1.13,1.54,1.54,0,0,1,1.15-.53,1.44,1.44,0,0,1,1.06.53,1.64,1.64,0,0,1,.5,1.13,1.7,1.7,0,0,1-.5,1.22,1.44,1.44,0,0,1-1.06.53A1.54,1.54,0,0,1,468.08,37.54Zm.33-22.7a1.49,1.49,0,0,1-.24-.87,1.39,1.39,0,0,1,.24-.79,1.3,1.3,0,0,1,.82-.26,1.19,1.19,0,0,1,.74.26,1.39,1.39,0,0,1,.24.79,1.49,1.49,0,0,1-.24.87,1.15,1.15,0,0,1-.74.27A1.25,1.25,0,0,1,468.41,14.84Zm0,27.94a1.49,1.49,0,0,1-.24-.87,1.33,1.33,0,0,1,.24-.78,1.25,1.25,0,0,1,.82-.27,1.15,1.15,0,0,1,.74.27,1.33,1.33,0,0,1,.24.78,1.49,1.49,0,0,1-.24.87,1.15,1.15,0,0,1-.74.27A1.25,1.25,0,0,1,468.41,42.78Zm7.13-16.41a1.72,1.72,0,0,0,.49-1.22,1.63,1.63,0,0,0-.49-1.14,1.44,1.44,0,0,0-1.07-.52,1.5,1.5,0,0,0-1.14.52,1.64,1.64,0,0,0-.5,1.14,1.73,1.73,0,0,0,.5,1.22,1.5,1.5,0,0,0,1.14.52A1.44,1.44,0,0,0,475.54,26.37Zm0,5.59a1.73,1.73,0,0,0,.49-1.23,1.62,1.62,0,0,0-.49-1.13,1.44,1.44,0,0,0-1.07-.52,1.5,1.5,0,0,0-1.14.52,1.64,1.64,0,0,0-.5,1.13,1.74,1.74,0,0,0,.5,1.23,1.5,1.5,0,0,0,1.14.52A1.44,1.44,0,0,0,475.54,32Zm-1.89-11.53a1.49,1.49,0,0,1-.24-.87,1.39,1.39,0,0,1,.24-.79,1.32,1.32,0,0,1,.82-.26,1.17,1.17,0,0,1,.74.26,1.33,1.33,0,0,1,.25.79,1.42,1.42,0,0,1-.25.87,1.12,1.12,0,0,1-.74.26A1.26,1.26,0,0,1,473.65,20.43Zm0,16.77a1.54,1.54,0,0,1-.24-.88,1.33,1.33,0,0,1,.24-.78,1.26,1.26,0,0,1,.82-.26,1.12,1.12,0,0,1,.74.26,1.27,1.27,0,0,1,.25.78,1.47,1.47,0,0,1-.25.88,1.17,1.17,0,0,1-.74.26A1.32,1.32,0,0,1,473.65,37.2Zm.41-22.79a.63.63,0,0,1-.16-.44.51.51,0,0,1,.16-.35.57.57,0,0,1,.41-.17.48.48,0,0,1,.33.17A.52.52,0,0,1,475,14a.64.64,0,0,1-.17.44.48.48,0,0,1-.33.17A.57.57,0,0,1,474.06,14.41Zm0,27.94a.63.63,0,0,1-.16-.44.51.51,0,0,1,.16-.35.57.57,0,0,1,.41-.17.48.48,0,0,1,.33.17.52.52,0,0,1,.17.35.64.64,0,0,1-.17.44.48.48,0,0,1-.33.17A.57.57,0,0,1,474.06,42.35ZM480.46,26a1.49,1.49,0,0,0,.24-.87,1.36,1.36,0,0,0-.24-.79,1.19,1.19,0,0,0-.74-.26,1.3,1.3,0,0,0-.82.26,1.3,1.3,0,0,0-.25.79,1.42,1.42,0,0,0,.25.87,1.3,1.3,0,0,0,.82.26A1.19,1.19,0,0,0,480.46,26Zm0,5.59a1.52,1.52,0,0,0,.24-.88,1.33,1.33,0,0,0-.24-.78,1.13,1.13,0,0,0-.74-.26,1.24,1.24,0,0,0-.82.26,1.27,1.27,0,0,0-.25.78,1.45,1.45,0,0,0,.25.88,1.3,1.3,0,0,0,.82.26A1.19,1.19,0,0,0,480.46,31.61ZM479.31,20a.64.64,0,0,1-.17-.44.52.52,0,0,1,.17-.35.52.52,0,0,1,.41-.17.41.41,0,0,1,.32.17.52.52,0,0,1,.17.35A.64.64,0,0,1,480,20a.45.45,0,0,1-.32.17A.55.55,0,0,1,479.31,20Zm0,16.76a.62.62,0,0,1-.17-.44.59.59,0,0,1,.58-.52A.45.45,0,0,1,480,36a.55.55,0,0,1,.17.35.62.62,0,0,1-.17.44.41.41,0,0,1-.32.17A.52.52,0,0,1,479.31,36.76Z"/></g></g></svg>