<svg xmlns="http://www.w3.org/2000/svg" viewBox="0 0 224 240"><title>Fichier 1</title><g id="Calque_2" data-name="Calque 2"><g id="Layer_5" data-name="Layer 5"><path d="M112,240A111.87,111.87,0,0,0,135.4,18.7a24,24,0,0,0-46.8,0A111.47,111.47,0,0,0,12.2,178.5,24,24,0,0,0,32,216a21.78,21.78,0,0,0,8.9-1.8A110.59,110.59,0,0,0,112,240Zm0-224a8,8,0,1,1-8,8A8,8,0,0,1,112,16ZM90.5,34.6a23.79,23.79,0,0,0,42.8,0A95.89,95.89,0,1,1,52.8,203.5,23.52,23.52,0,0,0,55.9,192a24.07,24.07,0,0,0-24-24,23.24,23.24,0,0,0-6.5,1A95.2,95.2,0,0,1,90.5,34.6ZM24,192a8,8,0,1,1,8,8A8,8,0,0,1,24,192Z"/><path d="M49.8,143.1a63.6,63.6,0,0,0,87.3,43.6A23.82,23.82,0,0,0,175.9,168a23.48,23.48,0,0,0-5.3-14.8A63.8,63.8,0,0,0,56.7,96.1c-.3,0-.5-.1-.8-.1a23.94,23.94,0,0,0-6.1,47.1ZM152,176a8,8,0,1,1,8-8A8,8,0,0,1,152,176ZM112,80a47.83,47.83,0,0,1,45,64.5,27.34,27.34,0,0,0-5-.5,24.07,24.07,0,0,0-24,24,27.34,27.34,0,0,0,.5,5,49.11,49.11,0,0,1-16.5,3,48.09,48.09,0,0,1-45.8-34.3A23.84,23.84,0,0,0,71.7,102,48.13,48.13,0,0,1,112,80ZM56,112a8,8,0,1,1-8,8A8,8,0,0,1,56,112Z"/><circle cx="112" cy="128" r="14"/></g></g></svg>